<svg width="111" height="32" viewBox="0 0 111 32" fill="none" xmlns="http://www.w3.org/2000/svg">
<path d="M64.3079 8.23652V4.46261C64.3079 3.49217 63.9872 3.27652 63.2924 3.27652C62.5975 3.27652 62.2768 3.49217 62.2768 4.46261V6.83478C62.2768 8.18261 67.6218 12.3339 67.6218 14.2748V17.6713C67.6218 20.1513 65.3235 20.9061 63.2924 20.9061C61.2613 20.9061 58.9629 20.2052 58.9629 17.6713V13.2504H62.2768V17.4017C62.2768 18.3722 62.5975 18.5878 63.2924 18.5878C63.9872 18.5878 64.3079 18.3722 64.3079 17.4017V15.407C64.3079 12.7113 58.9629 10.0696 58.9629 6.99652V4.24696C58.9629 1.76696 61.2613 1.01217 63.2924 1.01217C65.3235 1.01217 67.6218 1.71304 67.6218 4.24696V8.29043L64.3079 8.23652Z" fill="#373B3D"/>
<path d="M78.2049 1.38956V3.86956H75.3186V20.4748H72.0047V3.86956H69.065V1.38956H78.2049Z" fill="#373B3D"/>
<path d="M83.1757 17.4017C83.1757 18.3722 83.4965 18.5878 84.1913 18.5878C84.8861 18.5878 85.2068 18.3722 85.2068 17.4017V4.46261C85.2068 3.49217 84.8861 3.27652 84.1913 3.27652C83.4965 3.27652 83.1757 3.49217 83.1757 4.46261V17.4017ZM79.8618 4.24696C79.8618 1.76696 82.1602 1.01217 84.1913 1.01217C86.2224 1.01217 88.5207 1.76696 88.5207 4.24696V17.6713C88.5207 20.1513 86.2224 20.9061 84.1913 20.9061C82.1602 20.9061 79.8618 20.1513 79.8618 17.6713V4.24696Z" fill="#373B3D"/>
<path d="M95.5761 1.38956C97.1796 10.393 97.7676 14.113 98.0883 17.7252H98.1952C98.1952 17.4017 98.0883 14.0591 98.0883 11.1478V1.44348H100.814V20.4748H95.8968C94.0261 8.93739 93.5985 6.40348 93.3312 4.13913H93.2243C93.2778 4.40869 93.3312 6.13391 93.3312 6.61913V20.4748H90.6053V1.38956H95.5761Z" fill="#373B3D"/>
<path d="M110.221 1.38956V3.86956H106.159V8.72174H110.061V11.2017H106.159V17.9948H110.275V20.4748H102.845V1.38956H110.221Z" fill="#373B3D"/>
<path d="M6.47507 8.23652V4.40869C6.47507 3.43826 6.10092 3.22261 5.45952 3.22261C4.76467 3.22261 4.44397 3.43826 4.44397 4.40869V17.4017C4.44397 18.3722 4.76467 18.5878 5.45952 18.5878C6.15437 18.5878 6.47507 18.3722 6.47507 17.4017V13.2504H5.13882V10.9861H9.73552V20.4748H8.13202L8.02512 19.2887H7.97167C7.38372 20.367 6.26127 20.8522 4.97847 20.8522C3.42842 20.8522 1.13008 20.1513 1.13008 17.6174V4.13913C1.13008 1.65913 3.42842 0.904346 5.45952 0.904346C7.49062 0.904346 9.78897 1.60522 9.78897 4.13913V8.18261L6.47507 8.23652Z" fill="#373B3D"/>
<path d="M15.615 9.26087C16.7909 9.26087 17.0047 8.72174 17.0047 8.02087V4.57043C17.0047 3.86956 16.5237 3.6 15.7754 3.6H14.9736V9.26087H15.615ZM11.7132 20.4748V1.33565H16.0961C18.7686 1.33565 20.3721 2.14435 20.3721 4.62435V7.32C20.3721 8.72174 19.891 9.90782 17.1116 10.1774V10.2313C18.6617 10.447 20.3721 10.7704 20.3721 12.4957C20.3721 15.0296 20.3721 19.3965 20.3721 20.4209H17.1116C17.1116 19.3426 17.1116 15.353 17.1116 13.0887C17.1116 11.9565 16.6306 11.5252 15.0805 11.5252V20.4748H11.7132Z" fill="#373B3D"/>
<path d="M29.6189 1.33565V3.81565H25.5567V8.66782H29.4586V11.1478H25.5567V17.9409H29.6724V20.4748H22.2428V1.33565H29.6189Z" fill="#373B3D"/>
<path d="M37.3157 12.8191L36.6208 4.84H36.407L35.6053 12.8191H37.3157ZM34.1087 1.33565H39.0795L41.5917 20.4748H38.2778L37.6364 15.2991H35.2846L34.5897 20.4748H31.5965L34.1087 1.33565Z" fill="#373B3D"/>
<path d="M50.6247 1.33565V3.81565H47.7384V20.4748H44.4245V3.81565H41.5382V1.33565H50.6247Z" fill="#373B3D"/>
<path d="M3.26807 29.5861V26.6209C3.26807 26.4591 3.32152 26.0817 3.32152 25.8661H3.26807C3.21462 25.9739 3.05427 26.4591 2.89392 26.7826L1.55768 29.5861H0.969727V25.273H1.45078V28.1304C1.45078 28.2922 1.45078 28.7235 1.39733 28.9391C1.45078 28.7774 1.66458 28.2922 1.93183 27.753L3.10772 25.273H3.69567V29.5861H3.26807Z" fill="#373B3D"/>
<path d="M9.30792 29.5861V27.4835H7.59752V29.5861H7.11647V25.273H7.59752V27.1061H9.25447V25.273H9.73552V29.5861H9.30792Z" fill="#373B3D"/>
<path d="M15.3478 25.7043H14.1719V26.567C14.1719 27.4296 14.0115 28.5617 13.6374 29.2087H15.3478V25.7043ZM15.8288 29.5861H13.2098V30.8261H12.7287V29.1548H13.1563C13.5305 28.4539 13.6908 27.4296 13.6908 26.2974V25.273H15.8288V29.2087H16.3099V30.88H15.8288V29.5861Z" fill="#373B3D"/>
<path d="M20.6393 29.5861C20.4255 30.3948 20.2652 31.0417 19.41 31.0417C19.3031 31.0417 19.2496 31.0417 19.0893 31.0417V30.6104C19.2496 30.6104 19.3031 30.6104 19.41 30.6104C19.9979 30.6104 20.0514 30.0713 20.1583 29.64L18.9289 25.273H19.4634L20.2652 28.3461C20.3186 28.6156 20.3721 28.8852 20.4255 29.1548C20.479 28.8852 20.479 28.6156 20.5859 28.3461L21.3342 25.327H21.8687L20.6393 29.5861Z" fill="#373B3D"/>
<path d="M25.9309 29.6939C24.9688 29.6939 24.5412 28.9391 24.5412 27.4296C24.5412 26.4052 24.755 25.1652 26.0378 25.1652C26.8395 25.1652 27.3206 25.7043 27.3206 26.567H26.8395C26.8395 26.0817 26.6257 25.5965 26.0378 25.5965C25.3964 25.5965 25.0757 26.1896 25.0757 27.4296C25.0757 28.6696 25.3429 29.3165 26.0378 29.3165C26.5723 29.3165 26.893 28.8852 26.893 28.1304H27.374C27.3206 28.993 26.9464 29.6939 25.9309 29.6939Z" fill="#373B3D"/>
<path d="M31.8103 25.7043V29.64H31.3293V25.7043H30.0465V25.273H33.0397V25.7043H31.8103Z" fill="#373B3D"/>
<path d="M37.3691 25.5965C36.4605 25.5965 36.407 26.7287 36.407 27.4296C36.407 28.1304 36.4605 29.3165 37.3691 29.3165C38.2778 29.3165 38.3312 28.0226 38.3312 27.4296C38.3312 26.7287 38.2243 25.5965 37.3691 25.5965ZM37.476 29.6939C36.9415 29.6939 36.6208 29.4243 36.4605 28.9391C36.4605 29.1009 36.4605 29.1548 36.4605 29.4243V31.0957H35.926V25.273H36.407V25.5426C36.407 25.7583 36.407 25.8661 36.407 26.0278C36.5674 25.4887 36.9415 25.2191 37.476 25.2191C38.6519 25.2191 38.8123 26.4591 38.8123 27.3757C38.8123 28.2922 38.6519 29.6939 37.476 29.6939Z" fill="#373B3D"/>
<path d="M44.3176 29.5861V26.6209C44.3176 26.4591 44.3711 26.0817 44.3711 25.8661C44.3176 25.9739 44.1573 26.4591 43.9969 26.7826L42.6607 29.5861H42.0727V25.273H42.5538V28.1304C42.5538 28.2922 42.5538 28.7235 42.5003 28.9391C42.5538 28.7774 42.7676 28.2922 43.0348 27.753L44.2107 25.273H44.7987V29.5861H44.3176Z" fill="#373B3D"/>
<path d="M49.5557 27.4296C49.235 27.5374 48.8609 27.5913 48.5936 27.8609C48.4867 27.9687 48.4333 28.1843 48.4333 28.4539C48.4333 28.993 48.7005 29.3165 49.1281 29.3165C49.4488 29.3165 49.7161 29.1548 49.8764 28.8852C50.0368 28.6696 50.0902 28.4539 50.0902 28.0226V27.4835C50.0902 27.3756 50.0902 27.2678 50.0902 27.16C50.0368 27.2678 49.9299 27.3217 49.5557 27.4296ZM50.7316 29.64C50.3575 29.64 50.1971 29.4783 50.1971 29.1009V28.993C49.9833 29.4783 49.6092 29.6939 49.0747 29.6939C48.3798 29.6939 47.9522 29.2626 47.9522 28.4539C47.9522 28.0765 48.0591 27.6452 48.4333 27.4296C48.5936 27.3217 48.7005 27.2678 49.2885 27.1061C49.823 26.9443 49.9299 26.9443 50.0368 26.8365C50.1437 26.7826 50.1971 26.6209 50.1971 26.2974C50.1971 25.8122 49.9833 25.4887 49.4488 25.4887C48.8074 25.4887 48.6471 25.92 48.6471 26.4591H48.166C48.166 25.5965 48.5402 25.1113 49.4488 25.1113C49.8764 25.1113 50.1971 25.2191 50.4109 25.4348C50.7316 25.7043 50.6782 26.1896 50.6782 26.567V28.6696C50.6782 28.8852 50.6782 28.993 50.7316 29.047C50.7316 29.1548 50.8385 29.2087 50.9454 29.2087C50.9989 29.2087 51.0523 29.2087 51.1058 29.2087V29.5861C50.892 29.64 50.8385 29.64 50.7316 29.64Z" fill="#373B3D"/>
<path d="M56.237 29.5861V25.6504H54.9007L54.8473 28.0226C54.7938 29.3704 54.4731 29.64 53.9921 29.64C53.8852 29.64 53.7248 29.64 53.6179 29.5861V29.2087C53.6714 29.2087 53.7783 29.2626 53.8317 29.2626C54.2059 29.2626 54.3662 29.1548 54.4197 27.9148L54.4731 25.273H56.7715V29.5861H56.237Z" fill="#373B3D"/>
<path d="M61.3147 27.3756H60.6199V29.2087H61.2613C61.9027 29.2087 62.2234 28.9391 62.2234 28.2922C62.2234 27.6452 61.9561 27.3756 61.3147 27.3756ZM61.4216 29.5861H60.1388V25.273H60.6199V26.9983H61.4216C62.1165 26.9983 62.7579 27.3217 62.7579 28.2383C62.7579 29.1548 62.2234 29.5861 61.4216 29.5861Z" fill="#373B3D"/>
<path d="M68.0494 29.5861V27.4835H66.3925V29.5861H65.9114V25.273H66.3925V27.1061H68.0494V25.273H68.5305V29.5861H68.0494Z" fill="#373B3D"/>
<path d="M74.9979 25.273H75.479V29.5861H74.9979V25.273ZM73.0737 27.3756H72.4323V29.2087H73.0203C73.6617 29.2087 73.9824 28.9391 73.9824 28.2922C73.9824 27.6452 73.7151 27.3756 73.0737 27.3756ZM73.1806 29.5861H71.9513V25.273H72.4323V26.9983H73.1806C73.8755 26.9983 74.4634 27.3217 74.4634 28.2383C74.5169 29.1548 73.9824 29.5861 73.1806 29.5861Z" fill="#373B3D"/>
<path d="M80.2895 24.68C79.755 24.68 79.3808 24.3026 79.3274 23.7096H79.6481C79.7015 24.087 79.9153 24.3026 80.2895 24.3026C80.6102 24.3026 80.8774 24.087 80.9308 23.7096H81.2516C81.1981 24.3026 80.824 24.68 80.2895 24.68ZM81.1447 29.5861V26.6209C81.1447 26.4591 81.1981 26.0817 81.1981 25.8661H81.1447C81.0912 25.9739 80.9308 26.4591 80.7705 26.7826L79.4342 29.5861H78.8463V25.273H79.3274V28.1304C79.3274 28.2922 79.3274 28.6696 79.2739 28.9391C79.3274 28.7774 79.5412 28.2922 79.8084 27.753L80.9843 25.273H81.5723V29.5861H81.1447Z" fill="#373B3D"/>
<path d="M91.5674 29.5861V25.6504H89.9104V29.5861H89.4294V25.273H92.0484V29.5861H91.5674Z" fill="#373B3D"/>
<path d="M96.8055 27.4296C96.4848 27.5374 96.0572 27.5913 95.8434 27.8609C95.7365 27.9687 95.683 28.1843 95.683 28.4539C95.683 28.993 95.9503 29.3165 96.3779 29.3165C96.6986 29.3165 96.9658 29.1548 97.1262 28.8852C97.2865 28.6696 97.34 28.4539 97.34 28.0226V27.4835C97.34 27.3756 97.34 27.2678 97.34 27.16C97.34 27.2678 97.1796 27.3217 96.8055 27.4296ZM97.9814 29.64C97.6072 29.64 97.4469 29.4783 97.4469 29.1009V28.993C97.2331 29.4783 96.8589 29.6939 96.3244 29.6939C95.6296 29.6939 95.202 29.2626 95.202 28.4539C95.202 28.0765 95.3089 27.6452 95.683 27.4296C95.8434 27.3217 95.9503 27.2678 96.5382 27.1061C97.0727 26.9443 97.1796 26.9443 97.2865 26.8365C97.3934 26.7826 97.4469 26.6209 97.4469 26.2974C97.4469 25.8122 97.2331 25.4887 96.6986 25.4887C96.0572 25.4887 95.8968 25.92 95.8968 26.4591H95.4158C95.4158 25.5965 95.7899 25.1113 96.6986 25.1113C97.1262 25.1113 97.4469 25.2191 97.6607 25.4348C97.9814 25.7043 97.9279 26.1896 97.9279 26.567V28.6696C97.9279 28.8852 97.9279 28.993 97.9814 29.047C98.0348 29.1548 98.0883 29.2087 98.1952 29.2087C98.2486 29.2087 98.2486 29.2087 98.3555 29.2087V29.5861C98.1417 29.64 98.1417 29.64 97.9814 29.64Z" fill="#373B3D"/>
<path d="M102.738 25.5965C101.83 25.5965 101.776 26.7287 101.776 27.4296C101.776 28.1304 101.83 29.3165 102.738 29.3165C103.647 29.3165 103.701 28.0226 103.701 27.4296C103.701 26.7287 103.594 25.5965 102.738 25.5965ZM102.845 29.6939C102.311 29.6939 101.99 29.4243 101.83 28.9391C101.83 29.1009 101.83 29.1548 101.83 29.4243V31.0957H101.349V25.273H101.83V25.5426C101.83 25.7583 101.83 25.8661 101.83 26.0278C101.99 25.4887 102.418 25.2191 102.899 25.2191C104.075 25.2191 104.235 26.4591 104.235 27.3757C104.235 28.2922 104.021 29.6939 102.845 29.6939Z" fill="#373B3D"/>
<path d="M109.74 29.5861L108.458 27.4296L107.816 28.2922V29.5861H107.335V25.273H107.816V27.0522C107.816 27.16 107.816 27.5913 107.816 27.6452C107.87 27.5374 108.297 26.9443 108.404 26.7826L109.527 25.273H110.115L108.832 26.9983L110.328 29.5861H109.74Z" fill="#373B3D"/>
</svg>
