<svg width="75" height="36" viewBox="0 0 75 36" fill="none" xmlns="http://www.w3.org/2000/svg">
<path d="M5.68181 0V13.8946H11.8383V19.2218H0.328369V0H5.68181Z" fill="black"/>
<path d="M13.4506 19.2218V0H18.804V19.2218H13.4506Z" fill="black"/>
<path d="M31.5935 9.33631L37.4288 19.2218H31.4864L26.829 10.9839V19.2218H21.4755V0H26.829V7.68873L31.2188 0H37.1611L31.5935 9.33631Z" fill="black"/>
<path d="M43.846 12.0274V14.1692H50.8055V19.2218H38.4926V0H50.6716V4.99767H43.846V7.08461H50.0025V12.0274H43.846Z" fill="black"/>
<path d="M53.1875 19.2218V0H58.5409V19.2218H53.1875Z" fill="#FC342A"/>
<path d="M60.1418 0H74.3284V5.32719H69.9118V19.2218H64.5583V5.32719H60.1418V0Z" fill="#FC342A"/>
<path d="M0.737094 24.2894H2.11682C2.60399 24.2894 3.00598 24.4676 3.32281 24.8241C3.64304 25.1736 3.80316 25.6069 3.80316 26.1242C3.80316 26.6414 3.64304 27.0765 3.32281 27.4295C3.00598 27.7825 2.60399 27.959 2.11682 27.959H0.737094V24.2894ZM1.0948 27.613H2.11682C2.5086 27.613 2.82883 27.4697 3.07752 27.1831C3.32962 26.8931 3.45567 26.5401 3.45567 26.1242C3.45567 25.7083 3.32962 25.3553 3.07752 25.0652C2.82883 24.7787 2.5086 24.6354 2.11682 24.6354H1.0948V27.613Z" fill="#414A5B"/>
<path d="M5.5443 25.2749C5.92586 25.2749 6.23076 25.413 6.45901 25.6891C6.69408 25.9617 6.81161 26.285 6.81161 26.6589C6.81161 26.6764 6.8082 26.7305 6.80139 26.8214H4.55805C4.59212 27.0835 4.70114 27.2932 4.8851 27.4505C5.06906 27.6078 5.29902 27.6864 5.57497 27.6864C5.96333 27.6864 6.23758 27.5379 6.39769 27.2408L6.69408 27.419C6.58166 27.6078 6.42665 27.7563 6.22906 27.8646C6.03487 27.9695 5.81514 28.0219 5.56986 28.0219C5.16786 28.0219 4.84081 27.8926 4.58872 27.634C4.33662 27.3754 4.21057 27.0468 4.21057 26.6484C4.21057 26.2535 4.33491 25.9267 4.5836 25.6681C4.8323 25.406 5.15253 25.2749 5.5443 25.2749ZM5.5443 25.6104C5.27858 25.6104 5.05544 25.6908 4.87488 25.8516C4.69773 26.0124 4.59212 26.2238 4.55805 26.4859H6.46412C6.42665 26.2063 6.32274 25.9914 6.15241 25.8411C5.97526 25.6873 5.77256 25.6104 5.5443 25.6104Z" fill="#414A5B"/>
<path d="M8.19365 27.5973L9.08792 25.3378H9.44563L8.39806 27.959H7.98925L6.94168 25.3378H7.29939L8.19365 27.5973Z" fill="#414A5B"/>
<path d="M10.9339 25.2749C11.3154 25.2749 11.6203 25.413 11.8486 25.6891C12.0836 25.9617 12.2012 26.285 12.2012 26.6589C12.2012 26.6764 12.1978 26.7305 12.191 26.8214H9.94762C9.98168 27.0835 10.0907 27.2932 10.2747 27.4505C10.4586 27.6078 10.6886 27.6864 10.9645 27.6864C11.3529 27.6864 11.6271 27.5379 11.7873 27.2408L12.0836 27.419C11.9712 27.6078 11.8162 27.7563 11.6186 27.8646C11.4244 27.9695 11.2047 28.0219 10.9594 28.0219C10.5574 28.0219 10.2304 27.8926 9.97828 27.634C9.72618 27.3754 9.60013 27.0468 9.60013 26.6484C9.60013 26.2535 9.72447 25.9267 9.97317 25.6681C10.2219 25.406 10.5421 25.2749 10.9339 25.2749ZM10.9339 25.6104C10.6681 25.6104 10.445 25.6908 10.2644 25.8516C10.0873 26.0124 9.98168 26.2238 9.94762 26.4859H11.8537C11.8162 26.2063 11.7123 25.9914 11.542 25.8411C11.3648 25.6873 11.1621 25.6104 10.9339 25.6104Z" fill="#414A5B"/>
<path d="M13.0749 27.959H12.7377V24.1321H13.0749V27.959Z" fill="#414A5B"/>
<path d="M15.9317 27.6287C15.6694 27.8909 15.3526 28.0219 14.9813 28.0219C14.6031 28.0219 14.2846 27.8909 14.0257 27.6287C13.7668 27.3631 13.6373 27.0364 13.6373 26.6484C13.6373 26.2605 13.7668 25.9355 14.0257 25.6734C14.2846 25.4077 14.6031 25.2749 14.9813 25.2749C15.356 25.2749 15.6728 25.4077 15.9317 25.6734C16.1941 25.9355 16.3252 26.2605 16.3252 26.6484C16.3252 27.0329 16.1941 27.3596 15.9317 27.6287ZM14.2659 27.3876C14.46 27.5868 14.6985 27.6864 14.9813 27.6864C15.264 27.6864 15.5025 27.5868 15.6967 27.3876C15.8909 27.1814 15.988 26.935 15.988 26.6484C15.988 26.3583 15.8909 26.1137 15.6967 25.9145C15.5025 25.7118 15.264 25.6104 14.9813 25.6104C14.6985 25.6104 14.46 25.7118 14.2659 25.9145C14.0717 26.1137 13.9746 26.3583 13.9746 26.6484C13.9746 26.935 14.0717 27.1814 14.2659 27.3876Z" fill="#414A5B"/>
<path d="M18.2591 25.2749C18.6236 25.2749 18.9337 25.4077 19.1892 25.6734C19.4481 25.939 19.5775 26.264 19.5775 26.6484C19.5775 27.0329 19.4481 27.3579 19.1892 27.6235C18.9337 27.8891 18.6236 28.0219 18.2591 28.0219C17.806 28.0219 17.4619 27.8297 17.2269 27.4453V29.0075H16.8896V25.3378H17.2269V25.8516C17.4619 25.4672 17.806 25.2749 18.2591 25.2749ZM17.5182 27.3876C17.7123 27.5868 17.9508 27.6864 18.2336 27.6864C18.5163 27.6864 18.7548 27.5868 18.949 27.3876C19.1432 27.1814 19.2403 26.935 19.2403 26.6484C19.2403 26.3583 19.1432 26.1137 18.949 25.9145C18.7548 25.7118 18.5163 25.6104 18.2336 25.6104C17.9508 25.6104 17.7123 25.7118 17.5182 25.9145C17.324 26.1137 17.2269 26.3583 17.2269 26.6484C17.2269 26.935 17.324 27.1814 17.5182 27.3876Z" fill="#414A5B"/>
<path d="M22.862 25.2749C23.1516 25.2749 23.3832 25.3693 23.557 25.558C23.7307 25.7467 23.8176 26.0019 23.8176 26.3234V27.959H23.4803V26.3234C23.4803 26.0997 23.4241 25.925 23.3117 25.7992C23.1993 25.6734 23.0477 25.6104 22.8569 25.6104C22.6355 25.6104 22.4617 25.6856 22.3357 25.8359C22.2096 25.9861 22.1466 26.2098 22.1466 26.5069V27.959H21.8093V26.3234C21.8093 26.0962 21.7565 25.9215 21.6509 25.7992C21.5453 25.6734 21.3988 25.6104 21.2114 25.6104C20.9968 25.6104 20.8197 25.6873 20.68 25.8411C20.5437 25.9949 20.4756 26.2168 20.4756 26.5069V27.959H20.1383V25.3378H20.4756V25.7205C20.6596 25.4235 20.9202 25.2749 21.2574 25.2749C21.6288 25.2749 21.8877 25.434 22.0342 25.752C22.2181 25.434 22.4941 25.2749 22.862 25.2749Z" fill="#414A5B"/>
<path d="M25.6504 25.2749C26.0319 25.2749 26.3368 25.413 26.5651 25.6891C26.8001 25.9617 26.9177 26.285 26.9177 26.6589C26.9177 26.6764 26.9143 26.7305 26.9075 26.8214H24.6641C24.6982 27.0835 24.8072 27.2932 24.9912 27.4505C25.1751 27.6078 25.4051 27.6864 25.681 27.6864C26.0694 27.6864 26.3436 27.5379 26.5038 27.2408L26.8001 27.419C26.6877 27.6078 26.5327 27.7563 26.3351 27.8646C26.1409 27.9695 25.9212 28.0219 25.6759 28.0219C25.2739 28.0219 24.9469 27.8926 24.6948 27.634C24.4427 27.3754 24.3166 27.0468 24.3166 26.6484C24.3166 26.2535 24.441 25.9267 24.6897 25.6681C24.9384 25.406 25.2586 25.2749 25.6504 25.2749ZM25.6504 25.6104C25.3846 25.6104 25.1615 25.6908 24.9809 25.8516C24.8038 26.0124 24.6982 26.2238 24.6641 26.4859H26.5702C26.5327 26.2063 26.4288 25.9914 26.2585 25.8411C26.0813 25.6873 25.8786 25.6104 25.6504 25.6104Z" fill="#414A5B"/>
<path d="M28.6499 25.2749C28.9565 25.2749 29.2001 25.3728 29.3807 25.5685C29.5612 25.7607 29.6515 26.0211 29.6515 26.3496V27.959H29.3142V26.3496C29.3142 26.1155 29.2529 25.9337 29.1303 25.8044C29.011 25.6751 28.8407 25.6104 28.6193 25.6104C28.3638 25.6104 28.1611 25.6926 28.0112 25.8568C27.8647 26.0211 27.7914 26.264 27.7914 26.5855V27.959H27.4542V25.3378H27.7914V25.7467C27.9822 25.4322 28.2684 25.2749 28.6499 25.2749Z" fill="#414A5B"/>
<path d="M31.6578 25.3378V25.6734H30.922V27.2618C30.922 27.4051 30.9492 27.5082 31.0037 27.5711C31.0582 27.6305 31.14 27.6619 31.249 27.6654C31.358 27.6654 31.4943 27.6619 31.6578 27.6549V27.959C31.2933 28.0149 31.0225 27.9887 30.8453 27.8804C30.6716 27.7685 30.5847 27.5623 30.5847 27.2618V25.6734H30.0481V25.3378H30.5847V24.7088L30.922 24.6039V25.3378H31.6578Z" fill="#414A5B"/>
<path d="M33.8347 25.3378V25.773C33.9914 25.4549 34.2606 25.2959 34.6421 25.2959V25.6314C34.3968 25.6314 34.2009 25.7048 34.0545 25.8516C33.908 25.9949 33.8347 26.2116 33.8347 26.5016V27.959H33.4974V25.3378H33.8347Z" fill="#414A5B"/>
<path d="M36.1301 25.2749C36.5116 25.2749 36.8165 25.413 37.0448 25.6891C37.2798 25.9617 37.3974 26.285 37.3974 26.6589C37.3974 26.6764 37.394 26.7305 37.3872 26.8214H35.1438C35.1779 27.0835 35.2869 27.2932 35.4709 27.4505C35.6548 27.6078 35.8848 27.6864 36.1607 27.6864C36.5491 27.6864 36.8233 27.5379 36.9835 27.2408L37.2798 27.419C37.1674 27.6078 37.0124 27.7563 36.8148 27.8646C36.6206 27.9695 36.4009 28.0219 36.1556 28.0219C35.7536 28.0219 35.4266 27.8926 35.1745 27.634C34.9224 27.3754 34.7963 27.0468 34.7963 26.6484C34.7963 26.2535 34.9207 25.9267 35.1694 25.6681C35.4181 25.406 35.7383 25.2749 36.1301 25.2749ZM36.1301 25.6104C35.8643 25.6104 35.6412 25.6908 35.4606 25.8516C35.2835 26.0124 35.1779 26.2238 35.1438 26.4859H37.0499C37.0124 26.2063 36.9085 25.9914 36.7382 25.8411C36.561 25.6873 36.3583 25.6104 36.1301 25.6104Z" fill="#414A5B"/>
<path d="M38.2711 27.959H37.9339V24.1321H38.2711V27.959Z" fill="#414A5B"/>
<path d="M39.4007 24.5305C39.4007 24.6004 39.3769 24.6598 39.3292 24.7088C39.2815 24.7577 39.2236 24.7822 39.1554 24.7822C39.0873 24.7822 39.0294 24.7577 38.9817 24.7088C38.934 24.6598 38.9102 24.6004 38.9102 24.5305C38.9102 24.4606 38.934 24.4012 38.9817 24.3523C39.0294 24.3034 39.0873 24.2789 39.1554 24.2789C39.2236 24.2789 39.2815 24.3034 39.3292 24.3523C39.3769 24.4012 39.4007 24.4606 39.4007 24.5305ZM39.3241 27.959H38.9868V25.3378H39.3241V27.959Z" fill="#414A5B"/>
<path d="M42.2371 25.8516V25.3378H42.5744V27.959H42.2371V27.4453C42.0021 27.8297 41.658 28.0219 41.2049 28.0219C40.8404 28.0219 40.5286 27.8891 40.2697 27.6235C40.0142 27.3579 39.8865 27.0329 39.8865 26.6484C39.8865 26.264 40.0142 25.939 40.2697 25.6734C40.5286 25.4077 40.8404 25.2749 41.2049 25.2749C41.658 25.2749 42.0021 25.4672 42.2371 25.8516ZM40.515 27.3876C40.7092 27.5868 40.9477 27.6864 41.2304 27.6864C41.5132 27.6864 41.7517 27.5868 41.9458 27.3876C42.14 27.1814 42.2371 26.935 42.2371 26.6484C42.2371 26.3583 42.14 26.1137 41.9458 25.9145C41.7517 25.7118 41.5132 25.6104 41.2304 25.6104C40.9477 25.6104 40.7092 25.7118 40.515 25.9145C40.3208 26.1137 40.2237 26.3583 40.2237 26.6484C40.2237 26.935 40.3208 27.1814 40.515 27.3876Z" fill="#414A5B"/>
<path d="M44.658 25.2749C45.0225 25.2749 45.3325 25.4077 45.588 25.6734C45.8469 25.939 45.9764 26.264 45.9764 26.6484C45.9764 27.0329 45.8469 27.3579 45.588 27.6235C45.3325 27.8891 45.0225 28.0219 44.658 28.0219C44.2049 28.0219 43.8608 27.8297 43.6258 27.4453V27.959H43.2885V24.2894H43.6258V25.8516C43.8608 25.4672 44.2049 25.2749 44.658 25.2749ZM43.917 27.3876C44.1112 27.5868 44.3497 27.6864 44.6324 27.6864C44.9152 27.6864 45.1537 27.5868 45.3479 27.3876C45.542 27.1814 45.6391 26.935 45.6391 26.6484C45.6391 26.3583 45.542 26.1137 45.3479 25.9145C45.1537 25.7118 44.9152 25.6104 44.6324 25.6104C44.3497 25.6104 44.1112 25.7118 43.917 25.9145C43.7228 26.1137 43.6258 26.3583 43.6258 26.6484C43.6258 26.935 43.7228 27.1814 43.917 27.3876Z" fill="#414A5B"/>
<path d="M46.8745 27.959H46.5372V24.1321H46.8745V27.959Z" fill="#414A5B"/>
<path d="M48.7706 25.2749C49.1521 25.2749 49.457 25.413 49.6853 25.6891C49.9204 25.9617 50.0379 26.285 50.0379 26.6589C50.0379 26.6764 50.0345 26.7305 50.0277 26.8214H47.7843C47.8184 27.0835 47.9274 27.2932 48.1114 27.4505C48.2953 27.6078 48.5253 27.6864 48.8013 27.6864C49.1896 27.6864 49.4639 27.5379 49.624 27.2408L49.9204 27.419C49.8079 27.6078 49.6529 27.7563 49.4553 27.8646C49.2612 27.9695 49.0414 28.0219 48.7961 28.0219C48.3941 28.0219 48.0671 27.8926 47.815 27.634C47.5629 27.3754 47.4369 27.0468 47.4369 26.6484C47.4369 26.2535 47.5612 25.9267 47.8099 25.6681C48.0586 25.406 48.3788 25.2749 48.7706 25.2749ZM48.7706 25.6104C48.5049 25.6104 48.2817 25.6908 48.1012 25.8516C47.924 26.0124 47.8184 26.2238 47.7843 26.4859H49.6904C49.6529 26.2063 49.549 25.9914 49.3787 25.8411C49.2015 25.6873 48.9988 25.6104 48.7706 25.6104Z" fill="#414A5B"/>
<path d="M52.1176 26.0246C52.1176 26.2273 52.2931 26.3758 52.644 26.4702C52.7428 26.4946 52.8075 26.5121 52.8382 26.5226C52.8688 26.5296 52.9284 26.5488 53.017 26.5803C53.109 26.6082 53.172 26.6327 53.2061 26.6537C53.2436 26.6746 53.2947 26.7078 53.3594 26.7533C53.4241 26.7952 53.4701 26.8389 53.4974 26.8843C53.5246 26.9263 53.5502 26.9822 53.574 27.0521C53.5979 27.1185 53.6098 27.1901 53.6098 27.267C53.6098 27.4907 53.5229 27.6724 53.3492 27.8122C53.1822 27.952 52.9608 28.0219 52.6848 28.0219C52.4464 28.0219 52.2403 27.9677 52.0665 27.8594C51.8928 27.7476 51.7701 27.6008 51.6986 27.419L51.9848 27.246C52.0325 27.3823 52.1176 27.4907 52.2403 27.5711C52.3663 27.648 52.5145 27.6864 52.6848 27.6864C52.8586 27.6864 53 27.6514 53.109 27.5816C53.218 27.5117 53.2725 27.4068 53.2725 27.267C53.2725 27.0643 53.0971 26.9158 52.7462 26.8214C52.6474 26.797 52.5826 26.7812 52.552 26.7742C52.5213 26.7638 52.46 26.7445 52.368 26.7166C52.2794 26.6851 52.2164 26.6589 52.1789 26.6379C52.1449 26.617 52.0955 26.5855 52.0308 26.5436C51.966 26.4981 51.92 26.4545 51.8928 26.4125C51.8655 26.3671 51.84 26.3112 51.8161 26.2448C51.7923 26.1749 51.7804 26.1015 51.7804 26.0246C51.7804 25.8114 51.8621 25.6332 52.0256 25.4899C52.196 25.3466 52.4055 25.2749 52.6542 25.2749C52.8586 25.2749 53.0392 25.3221 53.1959 25.4165C53.356 25.5108 53.4735 25.6419 53.5485 25.8097L53.2674 25.9774C53.172 25.7328 52.9676 25.6104 52.6542 25.6104C52.5009 25.6104 52.3731 25.6471 52.2709 25.7205C52.1687 25.7939 52.1176 25.8953 52.1176 26.0246Z" fill="#414A5B"/>
<path d="M56.2387 27.6287C55.9764 27.8909 55.6595 28.0219 55.2882 28.0219C54.9101 28.0219 54.5915 27.8909 54.3326 27.6287C54.0737 27.3631 53.9443 27.0364 53.9443 26.6484C53.9443 26.2605 54.0737 25.9355 54.3326 25.6734C54.5915 25.4077 54.9101 25.2749 55.2882 25.2749C55.6629 25.2749 55.9798 25.4077 56.2387 25.6734C56.501 25.9355 56.6322 26.2605 56.6322 26.6484C56.6322 27.0329 56.501 27.3596 56.2387 27.6287ZM54.5728 27.3876C54.767 27.5868 55.0054 27.6864 55.2882 27.6864C55.571 27.6864 55.8094 27.5868 56.0036 27.3876C56.1978 27.1814 56.2949 26.935 56.2949 26.6484C56.2949 26.3583 56.1978 26.1137 56.0036 25.9145C55.8094 25.7118 55.571 25.6104 55.2882 25.6104C55.0054 25.6104 54.767 25.7118 54.5728 25.9145C54.3786 26.1137 54.2815 26.3583 54.2815 26.6484C54.2815 26.935 54.3786 27.1814 54.5728 27.3876Z" fill="#414A5B"/>
<path d="M57.5338 27.959H57.1965V24.1321H57.5338V27.959Z" fill="#414A5B"/>
<path d="M60.0483 26.7113V25.3378H60.3855V27.959H60.0483V27.5501C59.8575 27.8646 59.5713 28.0219 59.1898 28.0219C58.8832 28.0219 58.6396 27.9258 58.459 27.7336C58.2785 27.5379 58.1882 27.2758 58.1882 26.9472V25.3378H58.5255V26.9472C58.5255 27.1814 58.5851 27.3631 58.7043 27.4924C58.827 27.6217 58.999 27.6864 59.2204 27.6864C59.4759 27.6864 59.6769 27.6043 59.8234 27.44C59.9733 27.2758 60.0483 27.0329 60.0483 26.7113Z" fill="#414A5B"/>
<path d="M62.4532 25.3378V25.6734H61.7173V27.2618C61.7173 27.4051 61.7446 27.5082 61.7991 27.5711C61.8536 27.6305 61.9353 27.6619 62.0444 27.6654C62.1534 27.6654 62.2896 27.6619 62.4532 27.6549V27.959C62.0886 28.0149 61.8178 27.9887 61.6407 27.8804C61.4669 27.7685 61.38 27.5623 61.38 27.2618V25.6734H60.8435V25.3378H61.38V24.7088L61.7173 24.6039V25.3378H62.4532Z" fill="#414A5B"/>
<path d="M63.4292 24.5305C63.4292 24.6004 63.4053 24.6598 63.3577 24.7088C63.31 24.7577 63.2521 24.7822 63.1839 24.7822C63.1158 24.7822 63.0579 24.7577 63.0102 24.7088C62.9625 24.6598 62.9386 24.6004 62.9386 24.5305C62.9386 24.4606 62.9625 24.4012 63.0102 24.3523C63.0579 24.3034 63.1158 24.2789 63.1839 24.2789C63.2521 24.2789 63.31 24.3034 63.3577 24.3523C63.4053 24.4012 63.4292 24.4606 63.4292 24.5305ZM63.3526 27.959H63.0153V25.3378H63.3526V27.959Z" fill="#414A5B"/>
<path d="M66.2094 27.6287C65.9471 27.8909 65.6302 28.0219 65.2589 28.0219C64.8808 28.0219 64.5622 27.8909 64.3033 27.6287C64.0444 27.3631 63.9149 27.0364 63.9149 26.6484C63.9149 26.2605 64.0444 25.9355 64.3033 25.6734C64.5622 25.4077 64.8808 25.2749 65.2589 25.2749C65.6336 25.2749 65.9505 25.4077 66.2094 25.6734C66.4717 25.9355 66.6029 26.2605 66.6029 26.6484C66.6029 27.0329 66.4717 27.3596 66.2094 27.6287ZM64.5435 27.3876C64.7377 27.5868 64.9761 27.6864 65.2589 27.6864C65.5417 27.6864 65.7801 27.5868 65.9743 27.3876C66.1685 27.1814 66.2656 26.935 66.2656 26.6484C66.2656 26.3583 66.1685 26.1137 65.9743 25.9145C65.7801 25.7118 65.5417 25.6104 65.2589 25.6104C64.9761 25.6104 64.7377 25.7118 64.5435 25.9145C64.3493 26.1137 64.2522 26.3583 64.2522 26.6484C64.2522 26.935 64.3493 27.1814 64.5435 27.3876Z" fill="#414A5B"/>
<path d="M68.363 25.2749C68.6696 25.2749 68.9132 25.3728 69.0938 25.5685C69.2743 25.7607 69.3646 26.0211 69.3646 26.3496V27.959H69.0273V26.3496C69.0273 26.1155 68.966 25.9337 68.8434 25.8044C68.7241 25.6751 68.5538 25.6104 68.3323 25.6104C68.0768 25.6104 67.8741 25.6926 67.7242 25.8568C67.5778 26.0211 67.5045 26.264 67.5045 26.5855V27.959H67.1672V25.3378H67.5045V25.7467C67.6953 25.4322 67.9815 25.2749 68.363 25.2749Z" fill="#414A5B"/>
<path d="M70.2824 26.0246C70.2824 26.2273 70.4579 26.3758 70.8088 26.4702C70.9076 26.4946 70.9723 26.5121 71.003 26.5226C71.0336 26.5296 71.0933 26.5488 71.1818 26.5803C71.2738 26.6082 71.3368 26.6327 71.3709 26.6537C71.4084 26.6746 71.4595 26.7078 71.5242 26.7533C71.5889 26.7952 71.6349 26.8389 71.6622 26.8843C71.6894 26.9263 71.715 26.9822 71.7388 27.0521C71.7627 27.1185 71.7746 27.1901 71.7746 27.267C71.7746 27.4907 71.6877 27.6724 71.514 27.8122C71.3471 27.952 71.1256 28.0219 70.8497 28.0219C70.6112 28.0219 70.4051 27.9677 70.2314 27.8594C70.0576 27.7476 69.935 27.6008 69.8634 27.419L70.1496 27.246C70.1973 27.3823 70.2824 27.4907 70.4051 27.5711C70.5311 27.648 70.6793 27.6864 70.8497 27.6864C71.0234 27.6864 71.1648 27.6514 71.2738 27.5816C71.3828 27.5117 71.4373 27.4068 71.4373 27.267C71.4373 27.0643 71.2619 26.9158 70.911 26.8214C70.8122 26.797 70.7475 26.7812 70.7168 26.7742C70.6861 26.7638 70.6248 26.7445 70.5328 26.7166C70.4443 26.6851 70.3812 26.6589 70.3438 26.6379C70.3097 26.617 70.2603 26.5855 70.1956 26.5436C70.1309 26.4981 70.0849 26.4545 70.0576 26.4125C70.0303 26.3671 70.0048 26.3112 69.9809 26.2448C69.9571 26.1749 69.9452 26.1015 69.9452 26.0246C69.9452 25.8114 70.0269 25.6332 70.1905 25.4899C70.3608 25.3466 70.5703 25.2749 70.819 25.2749C71.0234 25.2749 71.204 25.3221 71.3607 25.4165C71.5208 25.5108 71.6383 25.6419 71.7133 25.8097L71.4322 25.9774C71.3368 25.7328 71.1324 25.6104 70.819 25.6104C70.6657 25.6104 70.538 25.6471 70.4358 25.7205C70.3335 25.7939 70.2824 25.8953 70.2824 26.0246Z" fill="#414A5B"/>
<path d="M1.96352 31.2162V31.5517C1.71483 31.5308 1.52916 31.5744 1.40652 31.6828C1.28728 31.7911 1.22766 31.9711 1.22766 32.2227V32.3276H1.96352V32.6631H1.22766V34.9487H0.890397V32.6631H0.456039V32.3276H0.890397V32.2227C0.890397 31.8768 0.982379 31.6164 1.16634 31.4416C1.35371 31.2669 1.61944 31.1918 1.96352 31.2162Z" fill="#414A5B"/>
<path d="M4.30926 34.6185C4.04694 34.8806 3.73011 35.0117 3.35878 35.0117C2.98063 35.0117 2.6621 34.8806 2.40319 34.6185C2.14428 34.3529 2.01482 34.0261 2.01482 33.6382C2.01482 33.2502 2.14428 32.9252 2.40319 32.6631C2.6621 32.3975 2.98063 32.2647 3.35878 32.2647C3.73352 32.2647 4.05034 32.3975 4.30926 32.6631C4.57157 32.9252 4.70273 33.2502 4.70273 33.6382C4.70273 34.0226 4.57157 34.3494 4.30926 34.6185ZM2.64336 34.3773C2.83755 34.5765 3.07602 34.6762 3.35878 34.6762C3.64154 34.6762 3.88001 34.5765 4.07419 34.3773C4.26838 34.1711 4.36547 33.9248 4.36547 33.6382C4.36547 33.3481 4.26838 33.1035 4.07419 32.9042C3.88001 32.7015 3.64154 32.6002 3.35878 32.6002C3.07602 32.6002 2.83755 32.7015 2.64336 32.9042C2.44918 33.1035 2.35209 33.3481 2.35209 33.6382C2.35209 33.9248 2.44918 34.1711 2.64336 34.3773Z" fill="#414A5B"/>
<path d="M5.60439 32.3276V32.7627C5.7611 32.4447 6.03023 32.2857 6.41178 32.2857V32.6212C6.1665 32.6212 5.97061 32.6946 5.82412 32.8413C5.67763 32.9846 5.60439 33.2013 5.60439 33.4914V34.9487H5.26712V32.3276H5.60439Z" fill="#414A5B"/>
<path d="M9.16334 34.5241L9.99117 32.3276H10.3489L9.25532 35.1899C9.15312 35.4555 9.01003 35.66 8.82607 35.8032C8.64551 35.95 8.44451 36.0147 8.22308 35.9972V35.6722C8.52968 35.7106 8.76304 35.5289 8.92316 35.127L8.98959 34.9645L7.84493 32.3276H8.20264L9.16334 34.5241Z" fill="#414A5B"/>
<path d="M12.7978 34.6185C12.5355 34.8806 12.2187 35.0117 11.8473 35.0117C11.4692 35.0117 11.1507 34.8806 10.8917 34.6185C10.6328 34.3529 10.5034 34.0261 10.5034 33.6382C10.5034 33.2502 10.6328 32.9252 10.8917 32.6631C11.1507 32.3975 11.4692 32.2647 11.8473 32.2647C12.2221 32.2647 12.5389 32.3975 12.7978 32.6631C13.0601 32.9252 13.1913 33.2502 13.1913 33.6382C13.1913 34.0226 13.0601 34.3494 12.7978 34.6185ZM11.1319 34.3773C11.3261 34.5765 11.5646 34.6762 11.8473 34.6762C12.1301 34.6762 12.3686 34.5765 12.5628 34.3773C12.7569 34.1711 12.854 33.9248 12.854 33.6382C12.854 33.3481 12.7569 33.1035 12.5628 32.9042C12.3686 32.7015 12.1301 32.6002 11.8473 32.6002C11.5646 32.6002 11.3261 32.7015 11.1319 32.9042C10.9377 33.1035 10.8406 33.3481 10.8406 33.6382C10.8406 33.9248 10.9377 34.1711 11.1319 34.3773Z" fill="#414A5B"/>
<path d="M15.5544 33.7011V32.3276H15.8917V34.9487H15.5544V34.5398C15.3637 34.8544 15.0775 35.0117 14.6959 35.0117C14.3893 35.0117 14.1458 34.9156 13.9652 34.7233C13.7846 34.5276 13.6944 34.2655 13.6944 33.937V32.3276H14.0316V33.937C14.0316 34.1711 14.0912 34.3529 14.2105 34.4822C14.3331 34.6115 14.5052 34.6762 14.7266 34.6762C14.9821 34.6762 15.1831 34.594 15.3296 34.4298C15.4795 34.2655 15.5544 34.0226 15.5544 33.7011Z" fill="#414A5B"/>
<path d="M16.9424 32.3276V32.7627C17.0991 32.4447 17.3683 32.2857 17.7498 32.2857V32.6212C17.5045 32.6212 17.3087 32.6946 17.1622 32.8413C17.0157 32.9846 16.9424 33.2013 16.9424 33.4914V34.9487H16.6052V32.3276H16.9424Z" fill="#414A5B"/>
<path d="M20.8591 32.2647C21.2236 32.2647 21.5336 32.3975 21.7891 32.6631C22.048 32.9287 22.1775 33.2537 22.1775 33.6382C22.1775 34.0226 22.048 34.3476 21.7891 34.6132C21.5336 34.8789 21.2236 35.0117 20.8591 35.0117C20.406 35.0117 20.0619 34.8194 19.8268 34.435V34.9487H19.4896V31.2791H19.8268V32.8413C20.0619 32.4569 20.406 32.2647 20.8591 32.2647ZM20.1181 34.3773C20.3123 34.5765 20.5508 34.6762 20.8335 34.6762C21.1163 34.6762 21.3548 34.5765 21.5489 34.3773C21.7431 34.1711 21.8402 33.9248 21.8402 33.6382C21.8402 33.3481 21.7431 33.1035 21.5489 32.9042C21.3548 32.7015 21.1163 32.6002 20.8335 32.6002C20.5508 32.6002 20.3123 32.7015 20.1181 32.9042C19.9239 33.1035 19.8268 33.3481 19.8268 33.6382C19.8268 33.9248 19.9239 34.1711 20.1181 34.3773Z" fill="#414A5B"/>
<path d="M24.537 33.7011V32.3276H24.8743V34.9487H24.537V34.5398C24.3463 34.8544 24.0601 35.0117 23.6785 35.0117C23.3719 35.0117 23.1284 34.9156 22.9478 34.7233C22.7672 34.5276 22.677 34.2655 22.677 33.937V32.3276H23.0142V33.937C23.0142 34.1711 23.0739 34.3529 23.1931 34.4822C23.3157 34.6115 23.4878 34.6762 23.7092 34.6762C23.9647 34.6762 24.1657 34.594 24.3122 34.4298C24.4621 34.2655 24.537 34.0226 24.537 33.7011Z" fill="#414A5B"/>
<path d="M25.8535 33.0143C25.8535 33.217 26.0289 33.3656 26.3798 33.4599C26.4786 33.4844 26.5434 33.5019 26.574 33.5124C26.6047 33.5193 26.6643 33.5386 26.7529 33.57C26.8449 33.598 26.9079 33.6224 26.9419 33.6434C26.9794 33.6644 27.0305 33.6976 27.0952 33.743C27.16 33.785 27.206 33.8286 27.2332 33.8741C27.2605 33.916 27.286 33.9719 27.3099 34.0418C27.3337 34.1082 27.3456 34.1799 27.3456 34.2568C27.3456 34.4804 27.2588 34.6622 27.085 34.802C26.9181 34.9418 26.6967 35.0117 26.4207 35.0117C26.1822 35.0117 25.9761 34.9575 25.8024 34.8491C25.6286 34.7373 25.506 34.5905 25.4345 34.4088L25.7206 34.2358C25.7683 34.3721 25.8535 34.4804 25.9761 34.5608C26.1022 34.6377 26.2504 34.6762 26.4207 34.6762C26.5945 34.6762 26.7358 34.6412 26.8449 34.5713C26.9539 34.5014 27.0084 34.3966 27.0084 34.2568C27.0084 34.0541 26.8329 33.9055 26.482 33.8112C26.3832 33.7867 26.3185 33.771 26.2879 33.764C26.2572 33.7535 26.1959 33.7343 26.1039 33.7063C26.0153 33.6749 25.9523 33.6487 25.9148 33.6277C25.8807 33.6067 25.8313 33.5753 25.7666 33.5333C25.7019 33.4879 25.6559 33.4442 25.6286 33.4023C25.6014 33.3568 25.5758 33.3009 25.552 33.2345C25.5282 33.1646 25.5162 33.0912 25.5162 33.0143C25.5162 32.8012 25.598 32.6229 25.7615 32.4796C25.9318 32.3363 26.1414 32.2647 26.3901 32.2647C26.5945 32.2647 26.775 32.3119 26.9317 32.4062C27.0918 32.5006 27.2094 32.6316 27.2843 32.7994L27.0033 32.9672C26.9079 32.7225 26.7035 32.6002 26.3901 32.6002C26.2367 32.6002 26.109 32.6369 26.0068 32.7103C25.9046 32.7837 25.8535 32.885 25.8535 33.0143Z" fill="#414A5B"/>
<path d="M28.2972 31.5203C28.2972 31.5902 28.2734 31.6496 28.2257 31.6985C28.178 31.7474 28.1201 31.7719 28.052 31.7719C27.9838 31.7719 27.9259 31.7474 27.8782 31.6985C27.8305 31.6496 27.8067 31.5902 27.8067 31.5203C27.8067 31.4504 27.8305 31.391 27.8782 31.342C27.9259 31.2931 27.9838 31.2686 28.052 31.2686C28.1201 31.2686 28.178 31.2931 28.2257 31.342C28.2734 31.391 28.2972 31.4504 28.2972 31.5203ZM28.2206 34.9487H27.8833V32.3276H28.2206V34.9487Z" fill="#414A5B"/>
<path d="M30.132 32.2647C30.4387 32.2647 30.6822 32.3625 30.8628 32.5583C31.0434 32.7505 31.1336 33.0108 31.1336 33.3394V34.9487H30.7964V33.3394C30.7964 33.1052 30.735 32.9235 30.6124 32.7942C30.4932 32.6648 30.3228 32.6002 30.1014 32.6002C29.8459 32.6002 29.6432 32.6823 29.4933 32.8466C29.3468 33.0108 29.2736 33.2537 29.2736 33.5753V34.9487H28.9363V32.3276H29.2736V32.7365C29.4643 32.422 29.7505 32.2647 30.132 32.2647Z" fill="#414A5B"/>
<path d="M32.9662 32.2647C33.3478 32.2647 33.6527 32.4027 33.8809 32.6788C34.116 32.9514 34.2335 33.2747 34.2335 33.6487C34.2335 33.6661 34.2301 33.7203 34.2233 33.8112H31.9799C32.014 34.0733 32.123 34.283 32.307 34.4402C32.491 34.5975 32.7209 34.6762 32.9969 34.6762C33.3852 34.6762 33.6595 34.5276 33.8196 34.2306L34.116 34.4088C34.0035 34.5975 33.8485 34.746 33.651 34.8544C33.4568 34.9592 33.237 35.0117 32.9917 35.0117C32.5898 35.0117 32.2627 34.8823 32.0106 34.6237C31.7585 34.3651 31.6325 34.0366 31.6325 33.6382C31.6325 33.2433 31.7568 32.9165 32.0055 32.6579C32.2542 32.3957 32.5744 32.2647 32.9662 32.2647ZM32.9662 32.6002C32.7005 32.6002 32.4773 32.6806 32.2968 32.8413C32.1196 33.0021 32.014 33.2135 31.9799 33.4757H33.886C33.8485 33.1961 33.7446 32.9811 33.5743 32.8309C33.3971 32.6771 33.1945 32.6002 32.9662 32.6002Z" fill="#414A5B"/>
<path d="M34.9359 33.0143C34.9359 33.217 35.1114 33.3656 35.4622 33.4599C35.561 33.4844 35.6258 33.5019 35.6564 33.5124C35.6871 33.5193 35.7467 33.5386 35.8353 33.57C35.9273 33.598 35.9903 33.6224 36.0244 33.6434C36.0618 33.6644 36.1129 33.6976 36.1777 33.743C36.2424 33.785 36.2884 33.8286 36.3156 33.8741C36.3429 33.916 36.3684 33.9719 36.3923 34.0418C36.4161 34.1082 36.4281 34.1799 36.4281 34.2568C36.4281 34.4804 36.3412 34.6622 36.1674 34.802C36.0005 34.9418 35.7791 35.0117 35.5031 35.0117C35.2647 35.0117 35.0585 34.9575 34.8848 34.8491C34.7111 34.7373 34.5884 34.5905 34.5169 34.4088L34.803 34.2358C34.8507 34.3721 34.9359 34.4804 35.0585 34.5608C35.1846 34.6377 35.3328 34.6762 35.5031 34.6762C35.6769 34.6762 35.8182 34.6412 35.9273 34.5713C36.0363 34.5014 36.0908 34.3966 36.0908 34.2568C36.0908 34.0541 35.9153 33.9055 35.5644 33.8112C35.4656 33.7867 35.4009 33.771 35.3703 33.764C35.3396 33.7535 35.2783 33.7343 35.1863 33.7063C35.0977 33.6749 35.0347 33.6487 34.9972 33.6277C34.9632 33.6067 34.9138 33.5753 34.849 33.5333C34.7843 33.4879 34.7383 33.4442 34.7111 33.4023C34.6838 33.3568 34.6583 33.3009 34.6344 33.2345C34.6106 33.1646 34.5986 33.0912 34.5986 33.0143C34.5986 32.8012 34.6804 32.6229 34.8439 32.4796C35.0143 32.3363 35.2238 32.2647 35.4725 32.2647C35.6769 32.2647 35.8574 32.3119 36.0141 32.4062C36.1743 32.5006 36.2918 32.6316 36.3667 32.7994L36.0857 32.9672C35.9903 32.7225 35.7859 32.6002 35.4725 32.6002C35.3192 32.6002 35.1914 32.6369 35.0892 32.7103C34.987 32.7837 34.9359 32.885 34.9359 33.0143Z" fill="#414A5B"/>
<path d="M37.1017 33.0143C37.1017 33.217 37.2772 33.3656 37.628 33.4599C37.7268 33.4844 37.7916 33.5019 37.8222 33.5124C37.8529 33.5193 37.9125 33.5386 38.0011 33.57C38.0931 33.598 38.1561 33.6224 38.1902 33.6434C38.2276 33.6644 38.2787 33.6976 38.3435 33.743C38.4082 33.785 38.4542 33.8286 38.4814 33.8741C38.5087 33.916 38.5342 33.9719 38.5581 34.0418C38.5819 34.1082 38.5939 34.1799 38.5939 34.2568C38.5939 34.4804 38.507 34.6622 38.3332 34.802C38.1663 34.9418 37.9449 35.0117 37.6689 35.0117C37.4305 35.0117 37.2243 34.9575 37.0506 34.8491C36.8769 34.7373 36.7542 34.5905 36.6827 34.4088L36.9688 34.2358C37.0165 34.3721 37.1017 34.4804 37.2244 34.5608C37.3504 34.6377 37.4986 34.6762 37.6689 34.6762C37.8427 34.6762 37.9841 34.6412 38.0931 34.5713C38.2021 34.5014 38.2566 34.3966 38.2566 34.2568C38.2566 34.0541 38.0811 33.9055 37.7303 33.8112C37.6315 33.7867 37.5667 33.771 37.5361 33.764C37.5054 33.7535 37.4441 33.7343 37.3521 33.7063C37.2635 33.6749 37.2005 33.6487 37.163 33.6277C37.129 33.6067 37.0796 33.5753 37.0148 33.5333C36.9501 33.4879 36.9041 33.4442 36.8769 33.4023C36.8496 33.3568 36.8241 33.3009 36.8002 33.2345C36.7764 33.1646 36.7644 33.0912 36.7644 33.0143C36.7644 32.8012 36.8462 32.6229 37.0097 32.4796C37.1801 32.3363 37.3896 32.2647 37.6383 32.2647C37.8427 32.2647 38.0232 32.3119 38.1799 32.4062C38.3401 32.5006 38.4576 32.6316 38.5325 32.7994L38.2515 32.9672C38.1561 32.7225 37.9517 32.6002 37.6383 32.6002C37.485 32.6002 37.3572 32.6369 37.255 32.7103C37.1528 32.7837 37.1017 32.885 37.1017 33.0143Z" fill="#414A5B"/>
</svg>
