<svg width="100" height="38" viewBox="0 0 100 38" fill="none" xmlns="http://www.w3.org/2000/svg">
<path d="M19.8216 36.4854H2.27948V18.8889C2.27948 9.14621 10.2081 1.19299 19.9207 1.19299C29.6333 1.19299 37.5619 9.14621 37.5619 18.8889C37.4628 28.6316 29.5342 36.4854 19.8216 36.4854ZM4.75718 34H19.8216C28.1467 34 34.9851 27.2398 34.9851 18.7895C34.9851 10.4386 28.2458 3.57896 19.8216 3.57896C11.3974 3.57896 4.75718 10.538 4.75718 18.8889V34Z" fill="url(#paint0_linear_1501_376)"/>
<path d="M47.5718 4.77196C49.2567 3.0819 51.2388 2.18716 53.7165 2.18716C56.1942 2.18716 58.1764 3.0819 59.8612 4.77196C61.546 6.46202 62.3389 8.54974 62.3389 11.0351C62.3389 13.5205 61.546 15.7076 59.8612 17.3977C58.2755 19.0877 56.1942 19.8831 53.7165 19.8831C51.2388 19.8831 49.1575 19.0877 47.5718 17.3977C45.9861 15.7076 45.0941 13.6199 45.0941 11.0351C45.0941 8.54974 45.9861 6.3626 47.5718 4.77196ZM48.8602 16.1053C50.1486 17.4971 51.7344 18.193 53.6174 18.193C55.5005 18.193 57.0862 17.4971 58.3746 16.1053C59.663 14.7135 60.3567 13.0234 60.3567 11.0351C60.3567 9.04681 59.663 7.35675 58.3746 5.96494C57.0862 4.57313 55.5005 3.87722 53.6174 3.87722C51.7344 3.87722 50.1486 4.57313 48.8602 5.96494C47.5718 7.35675 46.8781 9.04681 46.8781 11.0351C46.9772 13.0234 47.5718 14.8129 48.8602 16.1053Z" fill="white"/>
<path d="M68.3845 19.5848H66.6006V2.48541H68.1863L78.9891 16.503V2.48541H80.7731V19.5848H79.2864L68.3845 5.56728V19.5848Z" fill="white"/>
<path d="M97.7205 19.5848H85.7284V2.48541H97.4232V4.07606H87.5124V9.54389H95.6392V11.1345H87.5124V17.8948H97.8196V19.5848H97.7205Z" fill="white"/>
<path d="M47.7701 36.4854C47.1754 36.4854 46.5808 36.386 46.0852 36.2866C45.4906 36.1871 45.0941 35.9883 44.7968 35.7895V34.6959C45.6888 35.2924 46.6799 35.5907 47.7701 35.5907C48.3647 35.5907 48.8602 35.4912 49.2567 35.2924C49.6531 35.0936 49.7522 34.7953 49.7522 34.3977C49.7522 34.0994 49.554 33.8012 49.2567 33.6024C49.1576 33.5029 48.8602 33.4035 48.4638 33.3041C48.3647 33.3041 48.1665 33.2047 47.9683 33.2047C47.6709 33.1053 47.5718 33.1053 47.4727 33.1053C46.5808 32.9064 45.887 32.6082 45.4906 32.31C45.0941 32.0117 44.8959 31.5146 44.8959 30.9181C44.8959 30.3217 45.1932 29.7252 45.6888 29.4269C46.1843 29.1287 46.9772 28.9298 47.8692 28.9298C48.9593 28.9298 49.8513 29.1287 50.5451 29.6257V30.7193C49.7522 30.2222 48.8602 29.924 47.8692 29.924C47.2745 29.924 46.779 30.0234 46.4817 30.2222C46.1843 30.4211 45.9861 30.7193 45.9861 31.0176C45.9861 31.4152 46.1843 31.614 46.5808 31.8129C46.6799 31.8129 46.779 31.9123 46.8781 31.9123C46.9772 31.9123 47.0763 32.0117 47.1754 32.0117L47.4727 32.1111C47.6709 32.2105 47.9683 32.2105 48.1665 32.31C49.0585 32.5088 49.7522 32.807 50.1486 33.1053C50.5451 33.4035 50.8424 33.9006 50.8424 34.4971C50.8424 35.193 50.5451 35.6901 49.9504 36.0877C49.3558 36.386 48.662 36.4854 47.7701 36.4854Z" fill="white"/>
<path d="M56.1943 36.4854C55.5005 36.4854 55.005 36.2866 54.6085 35.8889C54.2121 35.4912 54.113 34.8948 54.113 34.1989V29.8246H52.329V28.8304H54.113V26.5439H55.2032V28.8304H57.78V29.8246H55.2032V33.8012C55.2032 34.3977 55.3023 34.7953 55.5005 34.9942C55.6987 35.193 55.996 35.3918 56.4916 35.3918C56.9871 35.3918 57.3836 35.2924 57.6809 35.0936V36.0877C57.3836 36.386 56.888 36.4854 56.1943 36.4854Z" fill="white"/>
<path d="M62.3389 36.4854C61.5461 36.4854 60.8523 36.2865 60.3568 35.8889C59.7621 35.4912 59.4648 34.7953 59.4648 34.0994C59.4648 33.4035 59.7621 32.807 60.3568 32.3099C60.9514 31.9123 61.6452 31.614 62.5372 31.614C63.5282 31.614 64.4202 31.8129 65.2131 32.3099V31.614C65.2131 30.421 64.4202 29.7251 62.8345 29.7251C61.9425 29.7251 61.1497 30.0234 60.4559 30.5205V29.4269C61.1497 28.9298 62.0416 28.731 63.1318 28.731C64.1229 28.731 64.9158 28.9298 65.5104 29.4269C66.1051 29.924 66.4024 30.6199 66.4024 31.4152V34.4971C66.4024 34.7953 66.5015 34.9941 66.6006 35.193C66.6997 35.3918 66.8979 35.3918 67.0961 35.3918C67.2943 35.3918 67.3935 35.3918 67.4926 35.2924V36.1871C67.2943 36.2865 67.0961 36.386 66.7988 36.386C66.4024 36.386 66.1051 36.2865 65.9068 36.0877C65.6095 35.8889 65.5104 35.5906 65.4113 35.193C64.5193 36.0877 63.5282 36.4854 62.3389 36.4854ZM62.6363 35.4912C63.1318 35.4912 63.6273 35.3918 64.1229 35.0936C64.6184 34.8947 64.9158 34.5965 65.2131 34.1988V33.2047C64.4202 32.7076 63.6274 32.5088 62.8345 32.5088C62.1407 32.5088 61.6452 32.6082 61.2488 32.9064C60.8523 33.2047 60.6541 33.5029 60.6541 34C60.6541 34.4971 60.8523 34.8947 61.2488 35.0936C61.5461 35.3918 62.0416 35.4912 62.6363 35.4912Z" fill="white"/>
<path d="M72.448 36.4854C71.7542 36.4854 71.2587 36.2866 70.8623 35.8889C70.4658 35.4912 70.3667 34.8948 70.3667 34.1989V29.8246H68.5828V28.8304H70.3667V26.5439H71.4569V28.8304H74.0337V29.8246H71.4569V33.8012C71.4569 34.3977 71.556 34.7953 71.7542 34.9942C71.9524 35.193 72.2498 35.3918 72.7453 35.3918C73.2408 35.3918 73.6373 35.2924 73.9346 35.0936V36.0877C73.6373 36.386 73.1417 36.4854 72.448 36.4854Z" fill="white"/>
<path d="M76.5114 26.9415C76.4123 26.8421 76.3132 26.6433 76.3132 26.4444C76.3132 26.2456 76.4123 26.0468 76.5114 25.8479C76.7096 25.6491 76.8087 25.6491 77.106 25.6491C77.3042 25.6491 77.5025 25.7485 77.7007 25.8479C77.8989 26.0468 77.8989 26.1462 77.8989 26.4444C77.8989 26.6433 77.7998 26.8421 77.7007 27.0409C77.5025 27.1403 77.4034 27.2398 77.106 27.2398C76.9078 27.2398 76.7096 27.1403 76.5114 26.9415ZM77.7007 36.386H76.6105V29.0292H77.7007V36.386Z" fill="white"/>
<path d="M81.3677 29.924C82.0614 29.1286 83.0525 28.731 84.2418 28.731C85.4311 28.731 86.3231 29.1286 87.1159 29.924C87.8097 30.6199 88.2061 31.614 88.2061 32.7076C88.2061 33.8012 87.8097 34.6959 87.1159 35.4912C86.3231 36.2865 85.4311 36.5848 84.2418 36.5848C83.0525 36.5848 82.1605 36.1871 81.3677 35.4912C80.6739 34.7953 80.2775 33.8012 80.2775 32.7076C80.2775 31.614 80.5748 30.7193 81.3677 29.924ZM87.1159 32.7076C87.1159 31.9123 86.8186 31.2164 86.3231 30.6199C85.7284 30.0234 85.0347 29.8246 84.2418 29.8246C83.4489 29.8246 82.7552 30.1228 82.1605 30.6199C81.665 31.2164 81.3677 31.9123 81.3677 32.7076C81.3677 33.5029 81.665 34.1988 82.1605 34.7953C82.6561 35.3918 83.3498 35.5906 84.2418 35.5906C85.0347 35.5906 85.7284 35.2924 86.3231 34.7953C86.8186 34.1988 87.1159 33.5029 87.1159 32.7076Z" fill="white"/>
<path d="M91.6749 31.4152V36.386H90.5847V29.0292H91.6749V30.1228C92.4678 29.2281 93.4589 28.8304 94.6482 28.8304C95.5401 28.8304 96.2339 29.1287 96.7294 29.6257C97.225 30.1228 97.4232 30.9181 97.4232 31.9123V36.386H96.333V32.1111C96.333 30.6199 95.6392 29.8246 94.2517 29.8246C93.7562 29.8246 93.2607 30.0234 92.7651 30.3216C92.2696 30.6199 91.8731 31.0176 91.6749 31.4152Z" fill="white"/>
<defs>
<linearGradient id="paint0_linear_1501_376" x1="2.24836" y1="36.5336" x2="32.3718" y2="6.50312" gradientUnits="userSpaceOnUse">
<stop stop-color="white"/>
<stop offset="0.463542" stop-color="#96D6F4"/>
<stop offset="1" stop-color="#1BAEE5"/>
</linearGradient>
</defs>
</svg>
