<svg width="80" height="31" viewBox="0 0 80 31" fill="none" xmlns="http://www.w3.org/2000/svg">
<path d="M15.8573 29.1883H1.82361V15.1111C1.82361 7.31696 8.16652 0.954391 15.9366 0.954391C23.7067 0.954391 30.0496 7.31696 30.0496 15.1111C29.9703 22.9053 23.6274 29.1883 15.8573 29.1883ZM3.80577 27.2H15.8573C22.5174 27.2 27.9881 21.7918 27.9881 15.0316C27.9881 8.35088 22.5967 2.86316 15.8573 2.86316C9.11796 2.86316 3.80577 8.43042 3.80577 15.1111V27.2Z" fill="url(#paint0_linear_1501_891)"/>
<path d="M38.0575 3.81755C39.4053 2.46551 40.9911 1.74972 42.9732 1.74972C44.9554 1.74972 46.5411 2.46551 47.889 3.81755C49.2369 5.1696 49.8711 6.83978 49.8711 8.82808C49.8711 10.8164 49.2369 12.5661 47.889 13.9181C46.6204 15.2702 44.9554 15.9064 42.9732 15.9064C40.9911 15.9064 39.3261 15.2702 38.0575 13.9181C36.7889 12.5661 36.0753 10.8959 36.0753 8.82808C36.0753 6.83978 36.7889 5.09007 38.0575 3.81755ZM39.0882 12.8842C40.1189 13.9977 41.3875 14.5544 42.8939 14.5544C44.4004 14.5544 45.669 13.9977 46.6997 12.8842C47.7304 11.7708 48.2854 10.4187 48.2854 8.82808C48.2854 7.23744 47.7304 5.88539 46.6997 4.77194C45.669 3.65849 44.4004 3.10176 42.8939 3.10176C41.3875 3.10176 40.1189 3.65849 39.0882 4.77194C38.0575 5.88539 37.5025 7.23744 37.5025 8.82808C37.5818 10.4187 38.0575 11.8503 39.0882 12.8842Z" fill="#201943"/>
<path d="M54.7077 15.6678H53.2805V1.98832H54.5491L63.1913 13.2023V1.98832H64.6185V15.6678H63.4292L54.7077 4.45381V15.6678Z" fill="#201943"/>
<path d="M78.1764 15.6678H68.5828V1.98832H77.9386V3.26083H70.0099V7.6351H76.5114V8.90761H70.0099V14.3158H78.2557V15.6678H78.1764Z" fill="#201943"/>
<path d="M38.2161 29.1883C37.7404 29.1883 37.2647 29.1088 36.8682 29.0292C36.3925 28.9497 36.0754 28.7906 35.8375 28.6316V27.7567C36.5511 28.2339 37.344 28.4725 38.2161 28.4725C38.6918 28.4725 39.0883 28.393 39.4054 28.2339C39.7226 28.0749 39.8018 27.8363 39.8018 27.5181C39.8018 27.2795 39.6433 27.0409 39.4054 26.8819C39.3261 26.8023 39.0883 26.7228 38.7711 26.6433C38.6918 26.6433 38.5333 26.5637 38.3747 26.5637C38.1368 26.4842 38.0575 26.4842 37.9783 26.4842C37.2647 26.3252 36.7097 26.0866 36.3925 25.848C36.0754 25.6094 35.9168 25.2117 35.9168 24.7345C35.9168 24.2573 36.1547 23.7801 36.5511 23.5415C36.9475 23.3029 37.5818 23.1439 38.2954 23.1439C39.1676 23.1439 39.8811 23.3029 40.4361 23.7006V24.5754C39.8018 24.1778 39.0883 23.9392 38.2954 23.9392C37.8197 23.9392 37.4233 24.0187 37.1854 24.1778C36.9475 24.3368 36.789 24.5754 36.789 24.814C36.789 25.1322 36.9475 25.2912 37.2647 25.4503C37.344 25.4503 37.4233 25.5298 37.5025 25.5298C37.5818 25.5298 37.6611 25.6094 37.7404 25.6094L37.9783 25.6889C38.1368 25.7684 38.3747 25.7684 38.5333 25.848C39.2468 26.007 39.8018 26.2456 40.119 26.4842C40.4361 26.7228 40.674 27.1205 40.674 27.5977C40.674 28.1544 40.4361 28.5521 39.9604 28.8702C39.4847 29.1088 38.9297 29.1883 38.2161 29.1883Z" fill="#201943"/>
<path d="M44.9555 29.1883C44.4004 29.1883 44.004 29.0292 43.6869 28.7111C43.3697 28.393 43.2904 27.9158 43.2904 27.3591V23.8597H41.8633V23.0643H43.2904V21.2351H44.1626V23.0643H46.224V23.8597H44.1626V27.0409C44.1626 27.5181 44.2419 27.8363 44.4004 27.9953C44.559 28.1544 44.7969 28.3135 45.1933 28.3135C45.5897 28.3135 45.9069 28.2339 46.1448 28.0749V28.8702C45.9069 29.1088 45.5105 29.1883 44.9555 29.1883Z" fill="#201943"/>
<path d="M49.8712 29.1883C49.2369 29.1883 48.6819 29.0292 48.2855 28.7111C47.8098 28.393 47.5719 27.8363 47.5719 27.2795C47.5719 26.7228 47.8098 26.2456 48.2855 25.848C48.7612 25.5298 49.3162 25.2912 50.0298 25.2912C50.8226 25.2912 51.5362 25.4503 52.1705 25.848V25.2912C52.1705 24.3368 51.5362 23.7801 50.2676 23.7801C49.5541 23.7801 48.9198 24.0187 48.3648 24.4164V23.5415C48.9198 23.1439 49.6333 22.9848 50.5055 22.9848C51.2984 22.9848 51.9327 23.1439 52.4084 23.5415C52.8841 23.9392 53.1219 24.4959 53.1219 25.1322V27.5977C53.1219 27.8363 53.2012 27.9953 53.2805 28.1544C53.3598 28.3135 53.5184 28.3134 53.677 28.3134C53.8355 28.3134 53.9148 28.3135 53.9941 28.2339V28.9497C53.8355 29.0292 53.677 29.1088 53.4391 29.1088C53.122 29.1088 52.8841 29.0292 52.7255 28.8702C52.4877 28.7111 52.4084 28.4725 52.3291 28.1544C51.6155 28.8702 50.8226 29.1883 49.8712 29.1883ZM50.1091 28.393C50.5055 28.393 50.9019 28.3134 51.2984 28.0749C51.6948 27.9158 51.9327 27.6772 52.1705 27.3591V26.5637C51.5362 26.1661 50.9019 26.007 50.2676 26.007C49.7126 26.007 49.3162 26.0865 48.9991 26.3251C48.6819 26.5637 48.5233 26.8023 48.5233 27.2C48.5233 27.5977 48.6819 27.9158 48.9991 28.0749C49.2369 28.3134 49.6333 28.393 50.1091 28.393Z" fill="#201943"/>
<path d="M57.9584 29.1883C57.4034 29.1883 57.0069 29.0292 56.6898 28.7111C56.3727 28.393 56.2934 27.9158 56.2934 27.3591V23.8597H54.8662V23.0643H56.2934V21.2351H57.1655V23.0643H59.227V23.8597H57.1655V27.0409C57.1655 27.5181 57.2448 27.8363 57.4034 27.9953C57.562 28.1544 57.7998 28.3135 58.1962 28.3135C58.5927 28.3135 58.9098 28.2339 59.1477 28.0749V28.8702C58.9098 29.1088 58.5134 29.1883 57.9584 29.1883Z" fill="#201943"/>
<path d="M61.2091 21.5532C61.1298 21.4737 61.0505 21.3146 61.0505 21.1556C61.0505 20.9965 61.1298 20.8374 61.2091 20.6784C61.3677 20.5193 61.447 20.5193 61.6848 20.5193C61.8434 20.5193 62.002 20.5988 62.1605 20.6784C62.3191 20.8374 62.3191 20.917 62.3191 21.1556C62.3191 21.3146 62.2398 21.4737 62.1605 21.6327C62.002 21.7123 61.9227 21.7918 61.6848 21.7918C61.5263 21.7918 61.3677 21.7123 61.2091 21.5532ZM62.1605 29.1088H61.2884V23.2234H62.1605V29.1088Z" fill="#201943"/>
<path d="M65.0942 23.9392C65.6492 23.3029 66.4421 22.9848 67.3935 22.9848C68.3449 22.9848 69.0585 23.3029 69.6928 23.9392C70.2478 24.4959 70.5649 25.2912 70.5649 26.1661C70.5649 27.0409 70.2478 27.7567 69.6928 28.393C69.0585 29.0292 68.3449 29.2678 67.3935 29.2678C66.4421 29.2678 65.7285 28.9497 65.0942 28.393C64.5392 27.8363 64.222 27.0409 64.222 26.1661C64.222 25.2912 64.4599 24.5754 65.0942 23.9392ZM69.6928 26.1661C69.6928 25.5298 69.4549 24.9731 69.0585 24.4959C68.5828 24.0187 68.0278 23.8596 67.3935 23.8596C66.7592 23.8596 66.2042 24.0982 65.7285 24.4959C65.3321 24.9731 65.0942 25.5298 65.0942 26.1661C65.0942 26.8023 65.3321 27.3591 65.7285 27.8363C66.1249 28.3134 66.6799 28.4725 67.3935 28.4725C68.0278 28.4725 68.5828 28.2339 69.0585 27.8363C69.4549 27.3591 69.6928 26.8023 69.6928 26.1661Z" fill="#201943"/>
<path d="M73.3399 25.1322V29.1088H72.4678V23.2234H73.3399V24.0983C73.9742 23.3825 74.7671 23.0643 75.7185 23.0643C76.4321 23.0643 76.9871 23.3029 77.3835 23.7006C77.78 24.0983 77.9385 24.7345 77.9385 25.5298V29.1088H77.0664V25.6889C77.0664 24.4959 76.5114 23.8597 75.4014 23.8597C75.0049 23.8597 74.6085 24.0187 74.2121 24.2573C73.8156 24.4959 73.4985 24.814 73.3399 25.1322Z" fill="#201943"/>
<defs>
<linearGradient id="paint0_linear_1501_891" x1="1.79871" y1="29.2269" x2="25.8975" y2="5.2025" gradientUnits="userSpaceOnUse">
<stop stop-color="#009FE3"/>
<stop offset="0.5229" stop-color="#27348B"/>
<stop offset="1" stop-color="#211A42"/>
</linearGradient>
</defs>
</svg>
