<svg width="96" height="36" viewBox="0 0 96 36" fill="none" xmlns="http://www.w3.org/2000/svg">
<path d="M17.8216 35.4853H0.27951V17.8888C0.27951 8.14609 8.20815 0.192871 17.9207 0.192871C27.6333 0.192871 35.562 8.14609 35.562 17.8888C35.4629 27.6315 27.5342 35.4853 17.8216 35.4853ZM2.75721 32.9999H17.8216C26.1467 32.9999 32.9852 26.2397 32.9852 17.7894C32.9852 9.43849 26.2458 2.57884 17.8216 2.57884C9.39745 2.57884 2.75721 9.5379 2.75721 17.8888V32.9999Z" fill="url(#paint0_linear_1534_658)"/>
<path d="M45.5719 3.77181C47.2567 2.08175 49.2389 1.18701 51.7166 1.18701C54.1943 1.18701 56.1764 2.08175 57.8613 3.77181C59.5461 5.46187 60.339 7.54958 60.339 10.035C60.339 12.5203 59.5461 14.7075 57.8613 16.3975C56.2755 18.0876 54.1943 18.8829 51.7166 18.8829C49.2389 18.8829 47.1576 18.0876 45.5719 16.3975C43.9861 14.7075 43.0942 12.6198 43.0942 10.035C43.0942 7.54958 43.9861 5.36245 45.5719 3.77181ZM46.8603 15.1051C48.1487 16.497 49.7344 17.1929 51.6175 17.1929C53.5005 17.1929 55.0862 16.497 56.3747 15.1051C57.6631 13.7133 58.3568 12.0233 58.3568 10.035C58.3568 8.04666 57.6631 6.3566 56.3747 4.96479C55.0862 3.57298 53.5005 2.87707 51.6175 2.87707C49.7344 2.87707 48.1487 3.57298 46.8603 4.96479C45.5719 6.3566 44.8781 8.04666 44.8781 10.035C44.9772 12.0233 45.5719 13.8127 46.8603 15.1051Z" fill="#201943"/>
<path d="M66.3846 18.5848H64.6006V1.48535H66.1864L76.9891 15.5029V1.48535H78.7731V18.5848H77.2865L66.3846 4.56722V18.5848Z" fill="#201943"/>
<path d="M95.7205 18.5848H83.7285V1.48535H95.4232V3.07599H85.5124V8.54383H93.6393V10.1345H85.5124V16.8947H95.8196V18.5848H95.7205Z" fill="#201943"/>
<path d="M45.7701 35.4852C45.1754 35.4852 44.5808 35.3858 44.0852 35.2864C43.4906 35.187 43.0942 34.9882 42.7968 34.7893V33.6958C43.6888 34.2923 44.6799 34.5905 45.7701 34.5905C46.3647 34.5905 46.8603 34.4911 47.2567 34.2923C47.6531 34.0934 47.7522 33.7952 47.7522 33.3975C47.7522 33.0993 47.554 32.801 47.2567 32.6022C47.1576 32.5028 46.8603 32.4034 46.4638 32.304C46.3647 32.304 46.1665 32.2045 45.9683 32.2045C45.671 32.1051 45.5719 32.1051 45.4728 32.1051C44.5808 31.9063 43.887 31.608 43.4906 31.3098C43.0942 31.0116 42.896 30.5145 42.896 29.918C42.896 29.3215 43.1933 28.725 43.6888 28.4268C44.1844 28.1285 44.9772 27.9297 45.8692 27.9297C46.9594 27.9297 47.8514 28.1285 48.5451 28.6256V29.7192C47.7522 29.2221 46.8603 28.9238 45.8692 28.9238C45.2745 28.9238 44.779 29.0233 44.4817 29.2221C44.1844 29.4209 43.9861 29.7192 43.9861 30.0174C43.9861 30.4151 44.1844 30.6139 44.5808 30.8127C44.6799 30.8127 44.779 30.9121 44.8781 30.9121C44.9772 30.9121 45.0763 31.0116 45.1754 31.0116L45.4728 31.111C45.671 31.2104 45.9683 31.2104 46.1665 31.3098C47.0585 31.5086 47.7522 31.8069 48.1487 32.1051C48.5451 32.4034 48.8424 32.9004 48.8424 33.4969C48.8424 34.1928 48.5451 34.6899 47.9505 35.0876C47.3558 35.3858 46.6621 35.4852 45.7701 35.4852Z" fill="#201943"/>
<path d="M54.1943 35.4852C53.5005 35.4852 53.005 35.2864 52.6086 34.8887C52.2121 34.4911 52.113 33.8946 52.113 33.1987V28.8244H50.3291V27.8302H52.113V25.5437H53.2032V27.8302H55.78V28.8244H53.2032V32.801C53.2032 33.3975 53.3023 33.7952 53.5005 33.994C53.6987 34.1928 53.9961 34.3916 54.4916 34.3916C54.9872 34.3916 55.3836 34.2922 55.6809 34.0934V35.0876C55.3836 35.3858 54.888 35.4852 54.1943 35.4852Z" fill="#201943"/>
<path d="M60.339 35.4853C59.5461 35.4853 58.8524 35.2865 58.3568 34.8888C57.7622 34.4912 57.4648 33.7953 57.4648 33.0994C57.4648 32.4035 57.7622 31.807 58.3568 31.3099C58.9515 30.9122 59.6452 30.614 60.5372 30.614C61.5283 30.614 62.4202 30.8128 63.2131 31.3099V30.614C63.2131 29.421 62.4202 28.7251 60.8345 28.7251C59.9425 28.7251 59.1497 29.0234 58.4559 29.5204V28.4269C59.1497 27.9298 60.0417 27.731 61.1318 27.731C62.1229 27.731 62.9158 27.9298 63.5104 28.4269C64.1051 28.9239 64.4024 29.6198 64.4024 30.4152V33.497C64.4024 33.7953 64.5015 33.9941 64.6006 34.1929C64.6997 34.3918 64.8979 34.3918 65.0962 34.3918C65.2944 34.3918 65.3935 34.3918 65.4926 34.2924V35.1871C65.2944 35.2865 65.0962 35.3859 64.7988 35.3859C64.4024 35.3859 64.1051 35.2865 63.9069 35.0877C63.6095 34.8888 63.5104 34.5906 63.4113 34.1929C62.5194 35.0877 61.5283 35.4853 60.339 35.4853ZM60.6363 34.4912C61.1318 34.4912 61.6274 34.3918 62.1229 34.0935C62.6185 33.8947 62.9158 33.5965 63.2131 33.1988V32.2046C62.4202 31.7076 61.6274 31.5087 60.8345 31.5087C60.1408 31.5087 59.6452 31.6081 59.2488 31.9064C58.8524 32.2046 58.6541 32.5029 58.6541 33C58.6541 33.497 58.8524 33.8947 59.2488 34.0935C59.5461 34.3918 60.0417 34.4912 60.6363 34.4912Z" fill="#201943"/>
<path d="M70.448 35.4852C69.7543 35.4852 69.2587 35.2864 68.8623 34.8887C68.4659 34.4911 68.3667 33.8946 68.3667 33.1987V28.8244H66.5828V27.8302H68.3667V25.5437H69.4569V27.8302H72.0337V28.8244H69.4569V32.801C69.4569 33.3975 69.556 33.7952 69.7543 33.994C69.9525 34.1928 70.2498 34.3916 70.7453 34.3916C71.2409 34.3916 71.6373 34.2922 71.9346 34.0934V35.0876C71.6373 35.3858 71.1418 35.4852 70.448 35.4852Z" fill="#201943"/>
<path d="M74.5114 25.9413C74.4123 25.8419 74.3132 25.6431 74.3132 25.4442C74.3132 25.2454 74.4123 25.0466 74.5114 24.8478C74.7096 24.6489 74.8087 24.6489 75.1061 24.6489C75.3043 24.6489 75.5025 24.7483 75.7007 24.8478C75.8989 25.0466 75.8989 25.146 75.8989 25.4442C75.8989 25.6431 75.7998 25.8419 75.7007 26.0407C75.5025 26.1402 75.4034 26.2396 75.1061 26.2396C74.9078 26.2396 74.7096 26.1402 74.5114 25.9413ZM75.7007 35.3858H74.6105V28.029H75.7007V35.3858Z" fill="#201943"/>
<path d="M79.3677 28.9239C80.0615 28.1286 81.0525 27.731 82.2418 27.731C83.4311 27.731 84.3231 28.1286 85.116 28.9239C85.8097 29.6198 86.2062 30.614 86.2062 31.7076C86.2062 32.8011 85.8097 33.6959 85.116 34.4912C84.3231 35.2865 83.4311 35.5848 82.2418 35.5848C81.0525 35.5848 80.1606 35.1871 79.3677 34.4912C78.674 33.7953 78.2775 32.8011 78.2775 31.7076C78.2775 30.614 78.5748 29.7193 79.3677 28.9239ZM85.116 31.7076C85.116 30.9122 84.8186 30.2163 84.3231 29.6198C83.7285 29.0234 83.0347 28.8245 82.2418 28.8245C81.449 28.8245 80.7552 29.1228 80.1606 29.6198C79.665 30.2163 79.3677 30.9122 79.3677 31.7076C79.3677 32.5029 79.665 33.1988 80.1606 33.7953C80.6561 34.3918 81.3499 34.5906 82.2418 34.5906C83.0347 34.5906 83.7285 34.2924 84.3231 33.7953C84.8186 33.1988 85.116 32.5029 85.116 31.7076Z" fill="#201943"/>
<path d="M89.675 30.4151V35.3859H88.5848V28.0292H89.675V29.1227C90.4678 28.228 91.4589 27.8303 92.6482 27.8303C93.5402 27.8303 94.2339 28.1286 94.7295 28.6256C95.225 29.1227 95.4232 29.918 95.4232 30.9122V35.3859H94.333V31.111C94.333 29.6198 93.6393 28.8245 92.2518 28.8245C91.7562 28.8245 91.2607 29.0233 90.7651 29.3216C90.2696 29.6198 89.8732 30.0175 89.675 30.4151Z" fill="#201943"/>
<defs>
<linearGradient id="paint0_linear_1534_658" x1="0.248392" y1="35.5335" x2="30.3719" y2="5.503" gradientUnits="userSpaceOnUse">
<stop stop-color="#009FE3"/>
<stop offset="0.5229" stop-color="#27348B"/>
<stop offset="1" stop-color="#211A42"/>
</linearGradient>
</defs>
</svg>
