<svg xmlns="http://www.w3.org/2000/svg" xmlns:xlink="http://www.w3.org/1999/xlink" width="0" height="0" style="position:absolute">
  <symbol id="map" viewBox="0 0 17.6 25">
    <path d="M8.8,0C3.9,0,0,3.9,0,8.8c0,1.6,0.5,3.2,1.3,4.6l7,11.2C8.4,24.9,8.7,25,8.9,25c0,0,0,0,0,0
    c0.3,0,0.5-0.1,0.6-0.4l6.8-11.4c0.8-1.4,1.2-2.9,1.2-4.5C17.6,3.9,13.6,0,8.8,0z M15.1,12.5L8.9,22.9L2.6,12.6
    c-0.7-1.2-1.1-2.5-1.1-3.8c0-4,3.3-7.3,7.3-7.3c4,0,7.3,3.3,7.3,7.3C16.1,10.1,15.8,11.4,15.1,12.5z"/>
    <path d="M8.8,4.4c-2.4,0-4.4,2-4.4,4.4c0,2.4,1.9,4.4,4.4,4.4c2.5,0,4.4-2,4.4-4.4C13.2,6.4,11.2,4.4,8.8,4.4z
      M8.8,11.7c-1.6,0-2.9-1.3-2.9-2.9c0-1.6,1.3-2.9,2.9-2.9s2.9,1.3,2.9,2.9C11.7,10.4,10.4,11.7,8.8,11.7z"/>
  </symbol>
  <symbol id="exit" viewBox="0 0 20 20" >
    <g>
      <path d="M7,20H3c-0.8,0-1.6-0.3-2.1-0.9C0.3,18.6,0,17.8,0,17V3c0-0.8,0.3-1.6,0.9-2.1C1.4,0.3,2.2,0,3,0h4
      c0.6,0,1,0.4,1,1S7.6,2,7,2H3C2.7,2,2.5,2.1,2.3,2.3C2.1,2.5,2,2.7,2,3v14c0,0.3,0.1,0.5,0.3,0.7C2.5,17.9,2.7,18,3,18h4
      c0.6,0,1,0.4,1,1S7.6,20,7,20z"/>
    </g>
    <g>
      <path d="M14,16c-0.3,0-0.5-0.1-0.7-0.3c-0.4-0.4-0.4-1,0-1.4l4.3-4.3l-4.3-4.3c-0.4-0.4-0.4-1,0-1.4s1-0.4,1.4,0l5,5
        c0.4,0.4,0.4,1,0,1.4l-5,5C14.5,15.9,14.3,16,14,16z"/>
    </g>
    <g>
      <path d="M19,11H7c-0.6,0-1-0.4-1-1c0-0.6,0.4-1,1-1h12c0.6,0,1,0.4,1,1C20,10.6,19.6,11,19,11z"/>
    </g>
  </symbol>
  <symbol id="station" viewBox="0 0 18 22" >
    <path d="M15,22H3c-0.8,0-1.6-0.3-2.1-0.9C0.3,20.6,0,19.8,0,19V5c0-0.8,0.3-1.6,0.9-2.1C1.4,2.3,2.2,2,3,2h2
			c0.6,0,1,0.4,1,1S5.6,4,5,4H3C2.7,4,2.5,4.1,2.3,4.3C2.1,4.5,2,4.7,2,5v14c0,0.3,0.1,0.5,0.3,0.7C2.5,19.9,2.7,20,3,20h12
			c0.3,0,0.5-0.1,0.7-0.3S16,19.3,16,19V5c0-0.3-0.1-0.5-0.3-0.7C15.5,4.1,15.3,4,15,4h-2c-0.6,0-1-0.4-1-1s0.4-1,1-1h2
			c0.8,0,1.6,0.3,2.1,0.9C17.7,3.4,18,4.2,18,5v14c0,0.8-0.3,1.6-0.9,2.1S15.8,22,15,22z"/>
		<path  d="M12,6H6C4.9,6,4,5.1,4,4V2c0-1.1,0.9-2,2-2h6c1.1,0,2,0.9,2,2v2C14,5.1,13.1,6,12,6z M6,2v2h6V2H6z"/>
  </symbol>
  <symbol id="clock" viewBox="0 0 24 24" >
    <path  d="M2,12C2,6.5,6.5,2,12,2c5.5,0,10,4.5,10,10c0,5.5-4.5,10-10,10C6.5,22,2,17.5,2,12z M12,0C5.4,0,0,5.4,0,12c0,6.6,5.4,12,12,12c6.6,0,12-5.4,12-12C24,5.4,18.6,0,12,0z M13,8c0-0.6-0.4-1-1-1s-1,0.4-1,1v4.4c0,0.3,0.2,0.6,0.4,0.8l3.3,2.2c0.5,0.3,1.1,0.2,1.4-0.3c0.3-0.5,0.2-1.1-0.3-1.4L13,11.9V8z"/>
  </symbol>
  <symbol id="statem" viewBox="0 0 18 22" >
    <path d="M15,22H3c-0.8,0-1.6-0.3-2.1-0.9C0.3,20.6,0,19.8,0,19V3c0-0.8,0.3-1.6,0.9-2.1C1.4,0.3,2.2,0,3,0h7	c0.3,0,0.5,0.1,0.7,0.3c0,0,0,0,0,0c0,0,0,0,0,0l7,7c0,0,0,0,0,0c0,0,0,0,0,0v0C17.9,7.5,18,7.7,18,8v11c0,0.8-0.3,1.6-0.9,2.1 S15.8,22,15,22z M3,2C2.7,2,2.5,2.1,2.3,2.3C2.1,2.5,2,2.7,2,3v16c0,0.3,0.1,0.5,0.3,0.7C2.5,19.9,2.7,20,3,20h12 c0.3,0,0.5-0.1,0.7-0.3S16,19.3,16,19V9h-6C9.4,9,9,8.6,9,8V2H3z M11,7h3.6L11,3.4V7z"/>
  </symbol>
  <symbol id="faq" viewBox="0 0 24 24" >
  <path d="M3,22c-0.1,0-0.3,0-0.4-0.1C2.2,21.8,2,21.4,2,21V5c0-0.8,0.3-1.6,0.9-2.1C3.4,2.3,4.2,2,5,2h14 c0.8,0,1.6,0.3,2.1,0.9C21.7,3.4,22,4.2,22,5v10c0,0.8-0.3,1.6-0.9,2.1S19.8,18,19,18H7.4l-3.7,3.7C3.5,21.9,3.3,22,3,22z M5,4 C4.7,4,4.5,4.1,4.3,4.3C4.1,4.5,4,4.7,4,5v13.6l2.3-2.3C6.5,16.1,6.7,16,7,16h12c0.3,0,0.5-0.1,0.7-0.3S20,15.3,20,15V5 c0-0.3-0.1-0.5-0.3-0.7C19.5,4.1,19.3,4,19,4H5z"/>
  </symbol>
  <symbol id="news" viewBox="0 0 22 22" >
    <g>
      <path  d="M11,20c-0.6,0-1-0.4-1-1c0-0.5-0.2-1-0.6-1.4C9,17.2,8.5,17,8,17H1c-0.6,0-1-0.4-1-1V1c0-0.6,0.4-1,1-1h6
        c1.3,0,2.6,0.5,3.5,1.5C11.5,2.4,12,3.7,12,5v14C12,19.6,11.6,20,11,20z M2,15h6c0.7,0,1.4,0.2,2,0.5V5c0-0.8-0.3-1.6-0.9-2.1
        C8.6,2.3,7.8,2,7,2H2V15z"/>
    </g>
    <g>
      <path  d="M11,20c-0.6,0-1-0.4-1-1V5c0-1.3,0.5-2.6,1.5-3.5C12.4,0.5,13.7,0,15,0h6c0.6,0,1,0.4,1,1v15c0,0.6-0.4,1-1,1
        h-7c-0.5,0-1,0.2-1.4,0.6S12,18.5,12,19C12,19.6,11.6,20,11,20z M15,2c-0.8,0-1.6,0.3-2.1,0.9C12.3,3.4,12,4.2,12,5v10.5
        c0.6-0.3,1.3-0.5,2-0.5h6V2H15z"/>
    </g>
  </symbol>
  <symbol id="contacts" viewBox="0 0 21.9 21.9" >
    <path d="M18.9,21.9c-0.1,0-0.2,0-0.3,0c-3.2-0.4-6.4-1.5-9.1-3.2c-2.5-1.6-4.7-3.8-6.3-6.3C1.5,9.7,0.4,6.5,0,3.3
    C0,2.9,0,2.4,0.2,2C0.3,1.6,0.5,1.3,0.8,1c0.3-0.3,0.6-0.6,1-0.7C2.2,0.1,2.6,0,3,0h3c0.7,0,1.4,0.3,2,0.7c0.6,0.5,0.9,1.1,1,1.9
    c0.1,0.9,0.3,1.8,0.6,2.6c0.2,0.5,0.2,1.1,0.1,1.7C9.6,7.4,9.4,7.9,9,8.3L8.2,9.1c1.2,1.8,2.7,3.4,4.6,4.6l0.7-0.7
    c0.4-0.4,0.9-0.7,1.5-0.8c0.6-0.1,1.1-0.1,1.7,0.1c0.8,0.3,1.7,0.5,2.6,0.6c0.7,0.1,1.4,0.5,1.9,1c0.5,0.6,0.7,1.3,0.7,2v3
    c0,0.4-0.1,0.8-0.3,1.2c-0.2,0.4-0.4,0.7-0.7,1c-0.3,0.3-0.7,0.5-1.1,0.6C19.5,21.9,19.2,21.9,18.9,21.9z M6,2C6,2,6,2,6,2H3
    C2.9,2,2.7,2,2.6,2.1C2.5,2.1,2.4,2.2,2.3,2.3C2.2,2.4,2.1,2.5,2.1,2.7C2,2.8,2,3,2,3.1C2.3,6,3.3,8.8,4.9,11.3
    c1.5,2.3,3.4,4.3,5.7,5.7c2.5,1.6,5.3,2.6,8.2,2.9c0.1,0,0.3,0,0.4,0c0.1,0,0.3-0.1,0.4-0.2c0.1-0.1,0.2-0.2,0.2-0.3
    c0.1-0.1,0.1-0.3,0.1-0.4v-3c0,0,0,0,0,0c0-0.2-0.1-0.5-0.2-0.7c-0.2-0.2-0.4-0.3-0.6-0.3c-1-0.1-2-0.4-3-0.8
    c-0.2-0.1-0.4-0.1-0.6,0c-0.2,0-0.4,0.1-0.5,0.3l-1.3,1.3c-0.3,0.3-0.8,0.4-1.2,0.2c-2.7-1.5-4.9-3.7-6.4-6.4C5.9,9,6,8.5,6.3,8.2
    l1.3-1.3c0.1-0.1,0.2-0.3,0.3-0.5c0-0.2,0-0.4,0-0.6c-0.4-1-0.6-2-0.8-3c0-0.2-0.2-0.5-0.3-0.6C6.5,2.1,6.3,2,6,2z"/>
  </symbol>
  <symbol id="register" viewBox="0 0 22 22" >
      <g>
      <path d="M11,22c-1.3,0-2.6-0.2-3.8-0.7C5,20.5,3.1,19,1.8,17c-1.3-2-1.9-4.4-1.7-6.7c0.2-2.4,1.1-4.6,2.6-6.4
      c1.5-1.8,3.6-3.1,5.9-3.6C10.9-0.2,13.3,0,15.5,1C16,1.2,16.2,1.8,16,2.3c-0.2,0.5-0.8,0.7-1.3,0.5C12.9,2,10.9,1.8,9,2.2
      C7.1,2.6,5.4,3.7,4.2,5.2c-1.3,1.5-2,3.3-2.1,5.3c-0.1,1.9,0.4,3.9,1.4,5.5c1,1.6,2.6,2.9,4.4,3.5c1.8,0.7,3.8,0.7,5.7,0.2
      c1.8-0.5,3.5-1.7,4.7-3.2c1.2-1.5,1.8-3.5,1.8-5.4v-0.9c0-0.6,0.4-1,1-1s1,0.4,1,1V11c0,2.4-0.8,4.7-2.2,6.6
      c-1.4,1.9-3.4,3.3-5.7,4C13.1,21.8,12.1,22,11,22z"/>
      </g>
      <g>
      <path d="M11,14c-0.3,0-0.5-0.1-0.7-0.3l-3-3c-0.4-0.4-0.4-1,0-1.4s1-0.4,1.4,0l2.3,2.3l9.3-9.3c0.4-0.4,1-0.4,1.4,0
      c0.4,0.4,0.4,1,0,1.4l-10,10C11.5,13.9,11.3,14,11,14z"/>
      </g>
  </symbol>
  <symbol id="phone" viewBox="0 0 18 18">
    <path d="M14.2258 11.1503C13.8573 10.7666 13.4128 10.5615 12.9417 10.5615C12.4744 10.5615 12.0261 10.7628 11.6424 11.1465L10.4419 12.3432C10.3432 12.29 10.2444 12.2407 10.1494 12.1913C10.0126 12.1229 9.88348 12.0583 9.77331 11.9899C8.6488 11.2757 7.62686 10.3449 6.64671 9.14065C6.17184 8.54041 5.85272 8.03514 5.62098 7.52227C5.9325 7.23734 6.22122 6.94102 6.50235 6.65609C6.60872 6.54972 6.7151 6.43955 6.82147 6.33318C7.61926 5.53538 7.61926 4.50205 6.82147 3.70425L5.78434 2.66712C5.66657 2.54935 5.545 2.42778 5.43103 2.30621C5.20309 2.07067 4.96375 1.82754 4.71681 1.59959C4.34831 1.23489 3.90762 1.04114 3.44414 1.04114C2.98066 1.04114 2.53237 1.23489 2.15247 1.59959C2.14867 1.60339 2.14867 1.60339 2.14487 1.60719L0.853204 2.91026C0.366929 3.39653 0.0896004 3.98918 0.028816 4.6768C-0.0623605 5.78612 0.264355 6.81945 0.515091 7.49568C1.13053 9.15585 2.0499 10.6945 3.42134 12.3432C5.08532 14.3301 7.0874 15.8991 9.37441 17.0046C10.2482 17.4187 11.4145 17.9088 12.7176 17.9924C12.7973 17.9962 12.8809 18 12.9569 18C13.8345 18 14.5715 17.6847 15.1489 17.0578C15.1527 17.0502 15.1603 17.0464 15.1641 17.0388C15.3617 16.7995 15.5896 16.5829 15.829 16.3512C15.9923 16.1954 16.1595 16.0321 16.3228 15.8611C16.6989 15.4698 16.8965 15.0139 16.8965 14.5467C16.8965 14.0756 16.6951 13.6235 16.3114 13.2436L14.2258 11.1503ZM15.5858 15.1507C15.582 15.1507 15.582 15.1545 15.5858 15.1507C15.4377 15.3103 15.2857 15.4546 15.1223 15.6142C14.8754 15.8497 14.6247 16.0967 14.3891 16.374C14.0054 16.7843 13.5533 16.978 12.9607 16.978C12.9037 16.978 12.8429 16.978 12.7859 16.9742C11.6576 16.9021 10.6091 16.4614 9.8227 16.0853C7.67245 15.0443 5.78434 13.5665 4.21534 11.6936C2.91987 10.1322 2.0537 8.68857 1.48004 7.13857C1.12673 6.19261 0.997567 5.4556 1.05455 4.76038C1.09254 4.3159 1.2635 3.94739 1.57882 3.63207L2.87428 2.3366C3.06044 2.16185 3.25799 2.06687 3.45174 2.06687C3.69107 2.06687 3.88482 2.21124 4.00639 2.33281C4.01019 2.3366 4.01399 2.3404 4.01779 2.3442C4.24953 2.56075 4.46987 2.78489 4.70161 3.02423C4.81938 3.1458 4.94095 3.26737 5.06252 3.39273L6.09966 4.42987C6.50235 4.83256 6.50235 5.20487 6.09966 5.60756C5.98948 5.71774 5.88311 5.82791 5.77294 5.93428C5.45382 6.26099 5.1499 6.56492 4.81938 6.86124C4.81179 6.86884 4.80419 6.87264 4.80039 6.88024C4.47367 7.20695 4.53446 7.52607 4.60284 7.74261C4.60664 7.75401 4.61044 7.76541 4.61424 7.77681C4.88397 8.43024 5.26387 9.04568 5.84132 9.77889L5.84512 9.78269C6.89365 11.0744 7.99917 12.0811 9.21865 12.8523C9.37441 12.9511 9.53397 13.0309 9.68593 13.1068C9.8227 13.1752 9.95186 13.2398 10.062 13.3082C10.0772 13.3158 10.0924 13.3272 10.1076 13.3348C10.2368 13.3994 10.3584 13.4298 10.4837 13.4298C10.799 13.4298 10.9966 13.2322 11.0612 13.1676L12.3604 11.8684C12.4896 11.7392 12.6948 11.5834 12.9341 11.5834C13.1696 11.5834 13.3634 11.7316 13.4812 11.8608C13.485 11.8646 13.485 11.8646 13.4888 11.8684L15.582 13.9616C15.9733 14.3491 15.9733 14.748 15.5858 15.1507Z"/>
    <path d="M9.72733 4.28172C10.7227 4.44888 11.6268 4.91995 12.3487 5.64177C13.0705 6.36358 13.5378 7.26775 13.7087 8.2631C13.7505 8.51383 13.9671 8.68859 14.214 8.68859C14.2444 8.68859 14.271 8.68479 14.3014 8.68099C14.5825 8.6354 14.7686 8.36947 14.7231 8.08834C14.5179 6.88405 13.9481 5.78613 13.0781 4.91616C12.2081 4.04618 11.1102 3.47633 9.90589 3.27118C9.62476 3.22559 9.36263 3.41174 9.31324 3.68907C9.26385 3.9664 9.4462 4.23613 9.72733 4.28172Z"/>
    <path d="M17.9788 7.94018C17.6406 5.95709 16.7061 4.15255 15.2701 2.71652C13.834 1.28049 12.0295 0.345932 10.0464 0.00781895C9.76907 -0.0415683 9.50693 0.148383 9.45755 0.425711C9.41196 0.706839 9.59811 0.968972 9.87924 1.01836C11.6496 1.31848 13.2642 2.15807 14.5482 3.43834C15.8323 4.72241 16.6681 6.33699 16.9682 8.10734C17.01 8.35807 17.2265 8.53283 17.4735 8.53283C17.5039 8.53283 17.5305 8.52903 17.5609 8.52523C17.8382 8.48344 18.0281 8.21751 17.9788 7.94018Z"/>
  </symbol>
  <symbol id="box" viewBox="0 0 26 26">
    <path d="M22.128 5.35427H18.3638V3.36745C18.3638 1.93237 17.1963 0.764862 15.7612 0.764862H10.2388C8.80374 0.764862 7.63623 1.93237 7.63623 3.36745V5.35422H3.87202C1.73697 5.35427 0 7.09124 0 9.22629V21.3631C0 23.4982 1.73697 25.2351 3.87202 25.2351H22.128C24.263 25.2351 26 23.4982 26 21.3631V9.22629C26 7.09124 24.263 5.35427 22.128 5.35427ZM9.15967 3.36745C9.15967 2.7724 9.64377 2.2883 10.2388 2.2883H15.7612C16.3562 2.2883 16.8403 2.7724 16.8403 3.36745V5.35422H9.15967V3.36745ZM1.52344 21.3631V9.22629C1.52344 8.19787 2.18816 7.32235 3.1103 7.00522V23.5842C2.18816 23.267 1.52344 22.3915 1.52344 21.3631ZM4.63374 23.7117V6.87771H21.3663V23.7117H4.63374ZM24.4766 21.3631C24.4766 22.3915 23.8118 23.267 22.8897 23.5841V7.00517C23.8118 7.32235 24.4766 8.19787 24.4766 9.22629V21.3631Z" />
    <path d="M17.5894 13.0031H15.2915V10.7053C15.2915 10.2846 14.9505 9.94357 14.5298 9.94357H11.4702C11.0495 9.94357 10.7085 10.2846 10.7085 10.7053V13.0031H8.41064C7.98997 13.0031 7.64893 13.3442 7.64893 13.7649V16.8244C7.64893 17.2451 7.98997 17.5862 8.41064 17.5862H10.7085V19.884C10.7085 20.3047 11.0495 20.6457 11.4702 20.6457H14.5298C14.9505 20.6457 15.2915 20.3047 15.2915 19.884V17.5862H17.5894C18.01 17.5862 18.3511 17.2451 18.3511 16.8244V13.7649C18.3511 13.3442 18.01 13.0031 17.5894 13.0031ZM16.8276 16.0627H14.5298C14.1091 16.0627 13.7681 16.4038 13.7681 16.8244V19.1223H12.2319V16.8244C12.2319 16.4038 11.8909 16.0627 11.4702 16.0627H9.17236V14.5266H11.4702C11.8909 14.5266 12.2319 14.1855 12.2319 13.7649V11.467H13.7681V13.7649C13.7681 14.1855 14.1091 14.5266 14.5298 14.5266H16.8276V16.0627Z" />
  </symbol>
  <symbol id="drop" viewBox="0 0 26 26">
    <path d="M11.9844 20.9219H14.0156C14.2961 20.9219 14.5234 20.6945 14.5234 20.4141V18.8906H16.0469C16.3273 18.8906 16.5547 18.6632 16.5547 18.3828V16.3516C16.5547 16.0711 16.3273 15.8438 16.0469 15.8438H14.5234V14.3203C14.5234 14.0399 14.2961 13.8125 14.0156 13.8125H11.9844C11.7039 13.8125 11.4766 14.0399 11.4766 14.3203V15.8438H9.95312C9.67266 15.8438 9.44531 16.0711 9.44531 16.3516V18.3828C9.44531 18.6632 9.67266 18.8906 9.95312 18.8906H11.4766V20.4141C11.4766 20.6945 11.7039 20.9219 11.9844 20.9219ZM10.4609 17.875V16.8594H11.9844C12.2648 16.8594 12.4922 16.632 12.4922 16.3516V14.8281H13.5078V16.3516C13.5078 16.632 13.7352 16.8594 14.0156 16.8594H15.5391V17.875H14.0156C13.7352 17.875 13.5078 18.1024 13.5078 18.3828V19.9062H12.4922V18.3828C12.4922 18.1024 12.2648 17.875 11.9844 17.875H10.4609Z" />
    <path d="M18.7383 23.6133C19.0187 23.6133 19.2461 23.3859 19.2461 23.1055C19.2461 22.825 19.0187 22.5977 18.7383 22.5977C18.4578 22.5977 18.2305 22.825 18.2305 23.1055C18.2305 23.3859 18.4578 23.6133 18.7383 23.6133Z" />
    <path d="M19.8741 21.7306C20.1195 21.866 20.4285 21.7768 20.564 21.5312C21.2632 20.2635 21.6328 18.8237 21.6328 17.3672C21.6328 13.105 19.4984 10.8106 17.4343 8.59163C15.4151 6.42093 13.5078 4.37064 13.5078 0.507812C13.5078 0.227398 13.2805 0 13 0C12.7195 0 12.4922 0.227398 12.4922 0.507812C12.4922 4.37064 10.5849 6.42093 8.56568 8.59163C6.50157 10.8106 4.36719 13.105 4.36719 17.3672C4.36719 22.1273 8.23987 26 13 26C14.4564 26 15.8963 25.6304 17.164 24.9312C17.4096 24.7957 17.4989 24.4869 17.3634 24.2412C17.228 23.9957 16.919 23.9066 16.6735 24.0418C15.5556 24.6585 14.2853 24.9844 13 24.9844C8.79988 24.9844 5.38281 21.5673 5.38281 17.3672C5.38281 13.5044 7.29006 11.4541 9.30932 9.28337C10.7599 7.72403 12.2452 6.12732 13 3.83657C13.7548 6.12727 15.2401 7.72403 16.6907 9.28337C18.7099 11.4541 20.6172 13.5044 20.6172 17.3672C20.6172 18.6526 20.2913 19.9229 19.6746 21.0407C19.5392 21.2863 19.6285 21.5952 19.8741 21.7306Z" />
  </symbol>
  <symbol id="user" viewBox="0 0 26 26">
    <path d="M22.1924 16.8076C20.7765 15.3917 19.0912 14.3435 17.2524 13.709C19.2218 12.3526 20.5156 10.0825 20.5156 7.51562C20.5156 3.37152 17.1441 0 13 0C8.85589 0 5.48438 3.37152 5.48438 7.51562C5.48438 10.0825 6.77823 12.3526 8.74768 13.709C6.90889 14.3435 5.22356 15.3917 3.80763 16.8076C1.35225 19.263 0 22.5276 0 26H2.03125C2.03125 19.9518 6.9518 15.0312 13 15.0312C19.0482 15.0312 23.9688 19.9518 23.9688 26H26C26 22.5276 24.6477 19.263 22.1924 16.8076ZM13 13C9.97593 13 7.51562 10.5398 7.51562 7.51562C7.51562 4.4915 9.97593 2.03125 13 2.03125C16.0241 2.03125 18.4844 4.4915 18.4844 7.51562C18.4844 10.5398 16.0241 13 13 13Z" />
  </symbol>
  <symbol id="arrow-step" viewBox="0 0 23 25">
    <path d="M1 23.5H0V24.9022L1.32571 24.4455L1 23.5ZM1 19.3L0.68231 18.3518L0 18.5804V19.3H1ZM20.4 12.8L20.7177 13.7482L21.4 13.5196V12.8H20.4ZM20.4 12.2H21.4V11.4804L20.7177 11.2518L20.4 12.2ZM1 5.70002H0V6.4196L0.68231 6.64821L1 5.70002ZM1 1.50002L1.32571 0.554544L0 0.0978394V1.50002H1ZM21.9 8.70002H22.9V7.98684L22.2257 7.75455L21.9 8.70002ZM21.9 16.3L22.2257 17.2455L22.9 17.0132V16.3H21.9ZM2 23.5V19.3H0V23.5H2ZM1.31769 20.2482L20.7177 13.7482L20.0823 11.8518L0.68231 18.3518L1.31769 20.2482ZM21.4 12.8V12.2H19.4V12.8H21.4ZM20.7177 11.2518L1.31769 4.75182L0.68231 6.64821L20.0823 13.1482L20.7177 11.2518ZM2 5.70002V1.50002H0V5.70002H2ZM0.67429 2.44549L21.5743 9.64548L22.2257 7.75455L1.32571 0.554544L0.67429 2.44549ZM20.9 8.70002V16.3H22.9V8.70002H20.9ZM21.5743 15.3545L0.67429 22.5545L1.32571 24.4455L22.2257 17.2455L21.5743 15.3545Z"/>
  </symbol>
  <symbol id="phone-2" viewBox="0 0 24 25">
    <path d="M20,23.5c-0.1,0-0.2,0-0.3,0c-3.2-0.4-6.4-1.5-9.1-3.2c-2.5-1.6-4.7-3.8-6.3-6.3c-1.8-2.7-2.9-5.9-3.2-9.1
		c0-0.4,0-0.8,0.1-1.2c0.1-0.4,0.3-0.8,0.6-1.1c0.3-0.3,0.6-0.6,1-0.7c0.4-0.2,0.8-0.3,1.2-0.3h3c0.7,0,1.4,0.3,2,0.7
		c0.6,0.5,0.9,1.1,1,1.9c0.1,0.9,0.3,1.8,0.6,2.6c0.2,0.5,0.2,1.1,0.1,1.7c-0.1,0.6-0.4,1.1-0.8,1.5l-0.7,0.7
		c1.2,1.8,2.7,3.4,4.6,4.6l0.7-0.7c0.4-0.4,0.9-0.7,1.5-0.8s1.1-0.1,1.7,0.1c0.8,0.3,1.7,0.5,2.6,0.6c0.7,0.1,1.4,0.5,1.9,1
		c0.5,0.6,0.7,1.3,0.7,2v3c0,0.4-0.1,0.8-0.3,1.2c-0.2,0.4-0.4,0.7-0.7,1c-0.3,0.3-0.7,0.5-1.1,0.6C20.6,23.5,20.3,23.5,20,23.5z
		 M7.1,3.6C7.1,3.6,7.1,3.6,7.1,3.6h-3c-0.1,0-0.3,0-0.4,0.1C3.6,3.7,3.5,3.8,3.4,3.9C3.3,4,3.2,4.1,3.2,4.3c0,0.1-0.1,0.3,0,0.4
		c0.3,2.9,1.3,5.8,2.9,8.2c1.5,2.3,3.4,4.3,5.7,5.7c2.5,1.6,5.3,2.6,8.2,2.9c0.1,0,0.3,0,0.4,0c0.1,0,0.3-0.1,0.4-0.2
		c0.1-0.1,0.2-0.2,0.2-0.3s0.1-0.3,0.1-0.4v-3c0,0,0,0,0,0c0-0.2-0.1-0.5-0.2-0.7c-0.2-0.2-0.4-0.3-0.6-0.3c-1-0.1-2-0.4-3-0.8
		c-0.2-0.1-0.4-0.1-0.6,0c-0.2,0-0.4,0.1-0.5,0.3l-1.3,1.3c-0.3,0.3-0.8,0.4-1.2,0.2c-2.7-1.5-4.9-3.7-6.4-6.4
		C7,10.6,7.1,10.1,7.4,9.8l1.3-1.3C8.8,8.4,8.9,8.2,8.9,8c0-0.2,0-0.4,0-0.6c-0.4-1-0.6-2-0.8-3C8.1,4.2,8,4,7.8,3.8
		C7.6,3.7,7.4,3.6,7.1,3.6z"/>
  </symbol>
  <symbol id="email" viewBox="0 0 24 25">
    <path d="M12,17.6c-2.8,0-5-2.2-5-5c0-2.8,2.2-5,5-5s5,2.2,5,5C17,15.4,14.8,17.6,12,17.6z M12,9.6c-1.7,0-3,1.3-3,3
		c0,1.7,1.3,3,3,3s3-1.3,3-3C15,10.9,13.7,9.6,12,9.6z"/>
    <path d="M12,23.6c-0.1,0-0.1,0-0.2,0c-2.5,0-4.9-0.9-6.8-2.5c-1.9-1.6-3.2-3.8-3.8-6.2c-0.5-2.4-0.2-5,0.9-7.2
      c1.1-2.2,2.9-4,5.2-5.1c2.2-1.1,4.8-1.3,7.2-0.8c2.4,0.6,4.6,1.9,6.1,3.9c1.5,1.9,2.4,4.4,2.4,6.8v1c0,1.1-0.4,2.1-1.2,2.8
      c-1.5,1.5-4.1,1.5-5.7,0c-0.8-0.8-1.2-1.8-1.2-2.8v-5c0-0.6,0.4-1,1-1s1,0.4,1,1v5c0,0.5,0.2,1,0.6,1.4c0.8,0.8,2.1,0.8,2.8,0
      c0.4-0.4,0.6-0.9,0.6-1.4v-1c0-2-0.7-4-2-5.6c-1.3-1.6-3-2.7-5-3.2c-2-0.5-4.1-0.2-5.9,0.6C6.3,5.3,4.8,6.8,3.9,8.6
      c-0.9,1.8-1.2,3.9-0.7,5.9c0.4,2,1.5,3.8,3.1,5.1c1.6,1.3,3.5,2,5.6,2c2,0,4-0.6,5.6-1.9c0.4-0.3,1.1-0.3,1.4,0.2
      c0.3,0.4,0.3,1.1-0.2,1.4C16.8,22.8,14.4,23.6,12,23.6z"/>
  </symbol>
  <symbol id="geo" viewBox="0 0 24 25">
    <path d="M12,24.6c-0.2,0-0.4-0.1-0.6-0.2C11.1,24.2,2,18,2,10.6c0-2.7,1-5.2,2.9-7.1C6.8,1.6,9.3,0.6,12,0.6
				c2.7,0,5.2,1,7.1,2.9C21,5.4,22,7.9,22,10.6c0,7.4-9.1,13.6-9.4,13.8C12.4,24.5,12.2,24.6,12,24.6z M12,2.6
				c-2.1,0-4.1,0.8-5.7,2.3C4.8,6.5,4,8.5,4,10.6C4,16,10.1,21,12,22.4c1.9-1.4,8-6.4,8-11.8c0-2.1-0.8-4.1-2.3-5.7
				C16.1,3.4,14.1,2.6,12,2.6z"/>
    <path d="M12,14.6c-2.2,0-4-1.8-4-4c0-2.2,1.8-4,4-4c2.2,0,4,1.8,4,4C16,12.8,14.2,14.6,12,14.6z M12,8.6
      c-1.1,0-2,0.9-2,2c0,1.1,0.9,2,2,2c1.1,0,2-0.9,2-2C14,9.5,13.1,8.6,12,8.6z"/>
  </symbol>
  <symbol id="user" viewBox="0 0 24 24">
    <path d="M20,22c-0.6,0-1-0.4-1-1v-2c0-0.8-0.3-1.6-0.9-2.1C17.6,16.3,16.8,16,16,16H8c-0.8,0-1.6,0.3-2.1,0.9
		C5.3,17.4,5,18.2,5,19v2c0,0.6-0.4,1-1,1s-1-0.4-1-1v-2c0-1.3,0.5-2.6,1.5-3.5C5.4,14.5,6.7,14,8,14h8c1.3,0,2.6,0.5,3.5,1.5
		c0.9,0.9,1.5,2.2,1.5,3.5v2C21,21.6,20.6,22,20,22z"/>
    <path d="M12,12c-2.8,0-5-2.2-5-5s2.2-5,5-5s5,2.2,5,5S14.8,12,12,12z M12,4c-1.7,0-3,1.3-3,3s1.3,3,3,3s3-1.3,3-3
      S13.7,4,12,4z"/>
  </symbol>
  <symbol id="cross" viewBox="0 0 24 24">
    <path d="M12,20c-0.6,0-1-0.4-1-1V5c0-0.6,0.4-1,1-1s1,0.4,1,1v14C13,19.6,12.6,20,12,20z"/>
    <path d="M19,13H5c-0.6,0-1-0.4-1-1s0.4-1,1-1h14c0.6,0,1,0.4,1,1S19.6,13,19,13z"/>
  </symbol>
  <symbol id="filter" viewBox="0 0 28 29">
    <rect x="13" y="4.5" width="15" height="2"/>
    <rect y="4.5" width="6" height="2"/>
    <rect y="13.5" width="15" height="2"/>
    <rect x="22" y="13.5" width="6" height="2"/>
    <rect y="22.5" width="6" height="2"/>
    <rect x="13" y="22.5" width="15" height="2"/>
    <path d="M9.5,9.6C7,9.6,5,7.6,5,5.1s2-4.5,4.5-4.5s4.5,2,4.5,4.5S12,9.6,9.5,9.6z M9.5,2.6C8.1,2.6,7,3.7,7,5.1
      s1.1,2.5,2.5,2.5S12,6.5,12,5.1S10.9,2.6,9.5,2.6z"/>
    <path d="M18.5,19.6c-2.5,0-4.5-2-4.5-4.5s2-4.5,4.5-4.5s4.5,2,4.5,4.5S21,19.6,18.5,19.6z M18.5,12.6
      c-1.4,0-2.5,1.1-2.5,2.5s1.1,2.5,2.5,2.5s2.5-1.1,2.5-2.5S19.9,12.6,18.5,12.6z"/>
    <path d="M9.5,28.4c-2.5,0-4.5-2-4.5-4.5s2-4.5,4.5-4.5s4.5,2,4.5,4.5S12,28.4,9.5,28.4z M9.5,21.4
      c-1.4,0-2.5,1.1-2.5,2.5s1.1,2.5,2.5,2.5s2.5-1.1,2.5-2.5S10.9,21.4,9.5,21.4z"/>
  </symbol>
  <symbol id="angle-left" viewBox="0 0 7 12">
    <path d="M0.22 6.71997C0.0793075 6.57946 0.000175052 6.38882 0 6.18997V5.80997C0.00230401 5.61156 0.081116 5.4217 0.22 5.27997L5.36 0.149974C5.45388 0.055318 5.58168 0.0020752 5.715 0.0020752C5.84832 0.0020752 5.97612 0.055318 6.07 0.149974L6.78 0.859974C6.87406 0.952138 6.92707 1.07828 6.92707 1.20997C6.92707 1.34166 6.87406 1.46781 6.78 1.55997L2.33 5.99997L6.78 10.44C6.87466 10.5339 6.9279 10.6617 6.9279 10.795C6.9279 10.9283 6.87466 11.0561 6.78 11.15L6.07 11.85C5.97612 11.9446 5.84832 11.9979 5.715 11.9979C5.58168 11.9979 5.45388 11.9446 5.36 11.85L0.22 6.71997Z"/>
  </symbol>
  <symbol id="angle-right" viewBox="0 0 7 12">
    <path d="M6.78 6.71997C6.92069 6.57946 6.99982 6.38882 7 6.18997V5.80997C6.9977 5.61156 6.91888 5.4217 6.78 5.27997L1.64 0.149974C1.54612 0.055318 1.41832 0.0020752 1.285 0.0020752C1.15168 0.0020752 1.02388 0.055318 0.93 0.149974L0.22 0.859974C0.125936 0.952138 0.0729284 1.07828 0.0729284 1.20997C0.0729284 1.34166 0.125936 1.46781 0.22 1.55997L4.67 5.99997L0.22 10.44C0.125343 10.5339 0.0721006 10.6617 0.0721006 10.795C0.0721006 10.9283 0.125343 11.0561 0.22 11.15L0.93 11.85C1.02388 11.9446 1.15168 11.9979 1.285 11.9979C1.41832 11.9979 1.54612 11.9446 1.64 11.85L6.78 6.71997Z"/>
  </symbol>
  <symbol id="dashboard-1" viewBox="0 0 24 24">
    <path fill-rule="evenodd" clip-rule="evenodd" d="M9.14062 2.0929C8.21742 2.29189 7.27434 2.91968 6.71353 3.70854C6.49627 4.01422 6.23081 4.59931 6.10988 5.03909C6.01448 5.38587 6.00647 5.52162 6.00337 6.84378L6 8.27347L6.13017 8.49486C6.44072 9.02319 7.158 9.15125 7.62952 8.76256C7.95267 8.49622 7.96584 8.42961 7.99425 6.91409C8.0182 5.63633 8.02627 5.53826 8.12817 5.28078C8.33306 4.76309 8.79586 4.31529 9.33755 4.11054L9.60938 4.00784L14.7891 3.99462C18.0083 3.98637 20.0812 3.99875 20.2659 4.02729C21.141 4.16258 21.8199 4.83233 21.9621 5.70064C22.0228 6.07156 22.0228 17.9285 21.9621 18.2994C21.8199 19.1677 21.141 19.8375 20.2659 19.9728C20.0812 20.0013 18.0083 20.0137 14.7891 20.0054L9.60938 19.9922L9.33755 19.8895C8.79586 19.6848 8.33306 19.237 8.12817 18.7193C8.02627 18.4618 8.0182 18.3637 7.99425 17.086C7.96584 15.5705 7.95267 15.5038 7.62952 15.2375C7.158 14.8488 6.44072 14.9769 6.13017 15.5052L6 15.7266L6.00337 17.1563C6.00647 18.4784 6.01448 18.6142 6.10988 18.961C6.23081 19.4008 6.49627 19.9859 6.71353 20.2915C7.12266 20.8671 7.81786 21.4228 8.46572 21.6922C9.20166 21.9983 8.97558 21.9888 15.1641 21.9742L20.7656 21.961L21.2109 21.8063C21.8696 21.5776 22.2923 21.3191 22.759 20.8594C23.2289 20.3968 23.4981 20.0017 23.7007 19.4777C23.9877 18.7355 23.9749 19.0839 23.9749 12C23.9749 4.91619 23.9877 5.26461 23.7007 4.52234C23.504 4.01356 23.2331 3.61081 22.784 3.15945C22.3343 2.70753 21.8435 2.40514 21.2109 2.19031L20.7656 2.03909L15.1172 2.03065C10.2362 2.02334 9.42417 2.03178 9.14062 2.0929Z"/>
    <path d="M4.88573 14.5576C5.13998 15.0447 4.91006 15.6939 4.40592 15.9126C4.17239 16.0139 3.78309 16.0064 3.57234 15.8967C3.31406 15.7622 0.16111 12.5834 0.0720008 12.3676C0.0323919 12.2718 3.38883e-07 12.1076 3.48042e-07 12.0029C3.57201e-07 11.8981 0.0323919 11.7339 0.0720009 11.6381C0.16111 11.4223 3.31406 8.24359 3.57234 8.10905C3.89405 7.94152 4.40977 8.01502 4.67972 8.26684C4.98309 8.54982 5.07614 9.08335 4.88574 9.44818C4.83192 9.55131 4.48027 9.94154 4.10428 10.3154L3.42066 10.9951L7.88953 11.0185L12.3585 11.0419L12.5316 11.1591C12.6268 11.2236 12.7623 11.3589 12.8328 11.4598C12.9453 11.6209 12.9609 11.6871 12.9609 12.0029C12.9609 12.3186 12.9453 12.3848 12.8328 12.5459C12.7623 12.6468 12.6268 12.7822 12.5316 12.8466L12.3585 12.9638L7.88953 12.9872L3.42066 13.0107L4.10428 13.6904C4.48027 14.0642 4.83192 14.4544 4.88573 14.5576Z"/>
  </symbol>
  <symbol id="dashboard-2" viewBox="0 0 24 24">
    <path fill-rule="evenodd" clip-rule="evenodd" d="M9.14062 2.0929C8.21742 2.29189 7.27434 2.91968 6.71353 3.70854C6.49627 4.01422 6.23081 4.59931 6.10988 5.03909C6.01448 5.38587 6.00647 5.52162 6.00337 6.84378L6 8.27347L6.13017 8.49486C6.44072 9.02319 7.158 9.15125 7.62952 8.76256C7.95267 8.49622 7.96584 8.42961 7.99425 6.91409C8.0182 5.63633 8.02627 5.53826 8.12817 5.28078C8.33306 4.76309 8.79586 4.31529 9.33755 4.11054L9.60938 4.00784L14.7891 3.99462C18.0083 3.98637 20.0812 3.99875 20.2659 4.02729C21.141 4.16258 21.8199 4.83233 21.9621 5.70064C22.0228 6.07156 22.0228 17.9285 21.9621 18.2994C21.8199 19.1677 21.141 19.8375 20.2659 19.9728C20.0812 20.0013 18.0083 20.0137 14.7891 20.0054L9.60938 19.9922L9.33755 19.8895C8.79586 19.6848 8.33306 19.237 8.12817 18.7193C8.02627 18.4618 8.0182 18.3637 7.99425 17.086C7.96584 15.5705 7.95267 15.5038 7.62952 15.2375C7.158 14.8488 6.44072 14.9769 6.13017 15.5052L6 15.7266L6.00337 17.1563C6.00647 18.4784 6.01448 18.6142 6.10988 18.961C6.23081 19.4008 6.49627 19.9859 6.71353 20.2915C7.12266 20.8671 7.81786 21.4228 8.46572 21.6922C9.20166 21.9983 8.97558 21.9888 15.1641 21.9742L20.7656 21.961L21.2109 21.8063C21.8696 21.5776 22.2923 21.3191 22.759 20.8594C23.2289 20.3968 23.4981 20.0017 23.7007 19.4777C23.9877 18.7355 23.9749 19.0839 23.9749 12C23.9749 4.91619 23.9877 5.26461 23.7007 4.52234C23.504 4.01356 23.2331 3.61081 22.784 3.15945C22.3343 2.70753 21.8435 2.40514 21.2109 2.19031L20.7656 2.03909L15.1172 2.03065C10.2362 2.02334 9.42417 2.03178 9.14062 2.0929Z"/>
    <path d="M9.0752 9.42645C8.82095 8.93932 9.05087 8.29006 9.55502 8.07143C9.78855 7.97014 10.1778 7.97759 10.3886 8.08732C10.6469 8.22186 13.7998 11.4006 13.8889 11.6164C13.9285 11.7122 13.9609 11.8764 13.9609 11.9811C13.9609 12.0859 13.9285 12.2501 13.8889 12.3459C13.7998 12.5617 10.6469 15.7404 10.3886 15.875C10.0669 16.0425 9.55117 15.969 9.28122 15.7172C8.97784 15.4342 8.8848 14.9007 9.0752 14.5358C9.12901 14.4327 9.48067 14.0425 9.85666 13.6686L10.5403 12.989L6.07141 12.9655L1.60248 12.9421L1.42937 12.8249C1.33417 12.7604 1.19861 12.6251 1.12816 12.5242C1.01561 12.3631 1 12.2969 1 11.9811C1 11.6654 1.01561 11.5992 1.12816 11.4381C1.19861 11.3372 1.33417 11.2018 1.42937 11.1374L1.60248 11.0202L6.07141 10.9968L10.5403 10.9733L9.85666 10.2936C9.48067 9.91981 9.12901 9.52957 9.0752 9.42645Z"/>
  </symbol>
  <symbol id="dashboard-3" viewBox="0 0 24 24">
    <path d="M5.5,0.1C4.8,0.2,4.3,0.5,3.8,0.9C3.2,1.3,2.8,2,2.6,2.7L2.4,3.1V12v8.9l0.1,0.4c0.4,1.2,1.3,2.2,2.6,2.5
    L5.5,24l1.6,0l1.6,0l0.2-0.1c0.3-0.2,0.4-0.4,0.4-0.8c0-0.4-0.1-0.6-0.4-0.8l-0.2-0.1l-1.4,0c-1.4,0-1.5,0-1.7-0.1
    c-0.5-0.2-0.9-0.6-1.1-1.1c-0.1-0.2-0.1-0.7-0.1-8.8c0-8.2,0-8.6,0.1-8.8C4.6,2.6,5,2.2,5.5,2l0.3-0.1H12h6.2L18.5,2
    c0.5,0.2,0.9,0.6,1.1,1.1c0.1,0.3,0.1,0.3,0.1,3.4l0,3.1l0.1,0.2c0.2,0.3,0.4,0.4,0.7,0.4c0.2,0,0.3,0,0.5-0.1
    c0.2-0.1,0.3-0.2,0.4-0.4l0.1-0.2l0-3c0-2.8,0-3.1-0.1-3.5c-0.2-0.8-0.5-1.4-1.1-2c-0.6-0.5-1.1-0.8-1.9-1C18.2,0,17.4,0,12,0
    C6.9,0,5.7,0,5.5,0.1z M6.8,5.7C6.5,5.8,6.2,6.2,6.2,6.6c0,0.3,0.2,0.6,0.4,0.8l0.2,0.1l5.1,0l5.1,0l0.3-0.1
    c0.2-0.1,0.3-0.2,0.4-0.4c0.2-0.3,0.2-0.5,0-0.9c-0.1-0.2-0.2-0.3-0.4-0.4L17,5.6l-5,0C9.2,5.6,6.9,5.6,6.8,5.7z M6.8,9.4
    c-0.4,0.1-0.6,0.5-0.6,0.9c0,0.3,0.2,0.6,0.4,0.8l0.2,0.1h3.3h3.3l0.2-0.1c0.3-0.2,0.4-0.4,0.4-0.8c0-0.4-0.1-0.6-0.4-0.8l-0.2-0.1
    l-3.2,0C8.4,9.4,6.9,9.4,6.8,9.4z M17,11c-1.5,0.3-2.6,1.3-3,2.7c-0.2,0.5-0.2,1.4,0,1.9c0.1,0.4,0.4,0.9,0.6,1.2
    c0.1,0.1,0.2,0.2,0.2,0.2c0,0-0.2,0.1-0.4,0.2c-1.3,0.7-2.3,1.8-2.9,3.2c-0.6,1.3-0.6,2.1,0,2.8c0.2,0.3,0.6,0.5,1,0.6
    c0.3,0.1,0.5,0.1,5.1,0.1c4.6,0,4.9,0,5.1-0.1c1-0.3,1.6-1.3,1.3-2.4c-0.5-1.8-1.6-3.4-3.3-4.2c-0.2-0.1-0.4-0.2-0.4-0.2
    c0,0,0.1-0.1,0.2-0.2c0.2-0.3,0.5-0.8,0.6-1.2c0.2-0.5,0.2-1.4,0-1.9c-0.4-1.2-1.3-2.2-2.6-2.6C18.2,11.1,17.3,11,17,11z M18.1,13
    c0.5,0.2,1,0.7,1.1,1.2c0.2,0.7-0.1,1.5-0.7,1.9c-0.3,0.2-0.7,0.3-1,0.3c-0.7,0-1.5-0.5-1.7-1.2c-0.1-0.3-0.1-0.9,0-1.2
    c0.2-0.5,0.7-1,1.2-1.1C17.4,12.9,17.8,12.9,18.1,13z M6.8,13.2c-0.4,0.1-0.6,0.5-0.6,0.9c0,0.3,0.2,0.6,0.4,0.8L6.8,15h2.3h2.3
    l0.2-0.1c0.1-0.1,0.2-0.2,0.3-0.3c0.1-0.2,0.1-0.2,0.1-0.5c0-0.3,0-0.3-0.1-0.5c-0.1-0.1-0.2-0.2-0.3-0.3l-0.2-0.1l-2.2,0
    C8,13.1,6.9,13.1,6.8,13.2z M18.7,18.5c1.7,0.5,3,1.8,3.4,3.5l0,0.1h-4.6h-4.6l0-0.1c0.4-1.8,1.9-3.2,3.7-3.6
    C17.1,18.3,18.2,18.4,18.7,18.5z"/>
  </symbol>
</svg>

